<?xml version="1.0" standalone="no"?>
<!DOCTYPE svg PUBLIC "-//W3C//DTD SVG 1.1//EN" "http://www.w3.org/Graphics/SVG/1.1/DTD/svg11.dtd" >
<svg>
<metadata>
Created by FontForge 20090622 at Fri Feb 22 20:53:06 2019
 By ffonts
Copyright (c)2016, Arco Perpetuo designed by Alfredo Marco Pradil (ammpradil@gmail.com). Arco Perpetuo is a trademark of Alfredo Marco Pradil.
</metadata>
<defs>
<font id="ArcoPerpetuo-Regular" horiz-adv-x="0" >
  <font-face 
    font-family="Arco Perpetuo"
    font-weight="400"
    font-stretch="normal"
    units-per-em="1000"
    panose-1="0 0 5 0 0 0 0 0 0 0"
    ascent="800"
    descent="-200"
    x-height="512"
    cap-height="690"
    bbox="-633 -244 1044 868"
    underline-thickness="40"
    underline-position="-60"
    unicode-range="U+0020-U+FB02"
  />
<missing-glyph horiz-adv-x="436" 
d="M20.5 2.5q-2.5 2.5 -2.5 6.5v470q0 4 2.5 6.5t6.5 2.5h382q9 0 9 -9v-470q0 -9 -9 -9h-382q-4 0 -6.5 2.5zM368 50v388h-300v-388h300z" />
    <glyph glyph-name="arrowleft" unicode="&#x3c;&#x2d;" horiz-adv-x="1097" 
d="M1044 339v-58q0 -9 -8 -9h-776l252 -134q6 -3 6 -10v-61q0 -5 -3 -7t-7 1l-438 245q-4 2 -4 6t4 6l438 242l4 1q6 0 6 -8v-60q0 -8 -6 -11l-252 -134h776q8 0 8 -9z" />
    <glyph glyph-name="arrowright" unicode="&#x2d;&#x3e;" horiz-adv-x="1097" 
d="M1031 312q0 -4 -5 -6l-437 -245q-4 -2 -5 -2q-5 0 -5 8v61q0 8 6 10l252 134h-776q-4 0 -6.5 2.5t-2.5 6.5v58q0 4 2.5 6.5t6.5 2.5h776l-252 134q-6 3 -6 11v60q0 5 3 7t7 0l437 -242q5 -2 5 -6z" />
    <glyph glyph-name="fi" unicode="fi" horiz-adv-x="565" 
d="M479.5 509.5q2.5 -2.5 2.5 -6.5v-494q0 -4 -2.5 -6.5t-6.5 -2.5h-74q-8 0 -8 9v433h-194v-433q0 -9 -8 -9h-75q-4 0 -6.5 2.5t-2.5 6.5v433h-81q-4 0 -6.5 2.5t-2.5 6.5v52q0 4 2.5 6.5t6.5 2.5h82v53q0 57 39.5 91t97.5 34h54q4 0 6.5 -2.5t2.5 -6.5v-53q0 -4 -2.5 -6.5
t-6.5 -2.5h-42q-58 0 -58 -53v-54h212h64q4 0 6.5 -2.5zM484.5 687.5q2.5 -2.5 2.5 -6.5v-82q0 -4 -2.5 -6.5t-6.5 -2.5h-83q-4 0 -6.5 2.5t-2.5 6.5v82q0 4 2.5 6.5t6.5 2.5h83q4 0 6.5 -2.5z" />
    <glyph glyph-name="fl" unicode="fl" horiz-adv-x="569" 
d="M398 9v672q0 9 8 9h74q4 0 6.5 -2.5t2.5 -6.5v-672q0 -4 -2.5 -6.5t-6.5 -2.5h-74q-8 0 -8 9zM107.5 2.5q-2.5 2.5 -2.5 6.5v433h-81q-9 0 -9 9v52q0 4 2.5 6.5t6.5 2.5h81v33q0 66 40.5 105.5t110.5 39.5h59q4 0 6.5 -2.5t2.5 -6.5v-53q0 -9 -9 -9h-48q-33 0 -52 -20
t-19 -53v-34h119q4 0 6.5 -2.5t2.5 -6.5v-52q0 -9 -9 -9h-119v-433q0 -9 -9 -9h-73q-4 0 -6.5 2.5z" />
    <glyph glyph-name="f_f" unicode="ff" horiz-adv-x="616" 
d="M494 599q-19 -20 -19 -53v-34h119q4 0 6.5 -2.5t2.5 -6.5v-52q0 -9 -9 -9h-119v-433q0 -4 -2.5 -6.5t-6.5 -2.5h-74q-8 0 -8 9v433h-67h-2h-119v-433q0 -9 -9 -9h-73q-4 0 -6.5 2.5t-2.5 6.5v433h-81q-9 0 -9 9v52q0 4 2.5 6.5t6.5 2.5h81v33q0 66 40.5 105.5t110.5 39.5
h59q4 0 6.5 -2.5t2.5 -6.5v-53q0 -9 -9 -9h-48q-33 0 -52 -20t-19 -53v-34h119h69v33q0 66 40 105.5t110 39.5h60q4 0 6.5 -2.5t2.5 -6.5v-53q0 -9 -9 -9h-48q-33 0 -52 -20z" />
    <glyph glyph-name="f_f_i" unicode="ffi" horiz-adv-x="858" 
d="M605 681v-53q0 -9 -9 -9h-48q-33 0 -51.5 -20t-18.5 -53v-34h118q9 0 9 -9v-52q0 -9 -9 -9h-118v-433q0 -4 -2.5 -6.5t-6.5 -2.5h-74q-4 0 -6.5 2.5t-2.5 6.5v433h-69h-2h-119v-433q0 -9 -9 -9h-73q-4 0 -6.5 2.5t-2.5 6.5v433h-81q-9 0 -9 9v52q0 4 2.5 6.5t6.5 2.5h81
v33q0 66 40.5 105.5t110.5 39.5h59q4 0 6.5 -2.5t2.5 -6.5v-53q0 -9 -9 -9h-48q-33 0 -52 -20t-19 -53v-34h119h72v33q0 66 40 105.5t110 39.5h59q9 0 9 -9zM777.5 687.5q2.5 -2.5 2.5 -6.5v-82q0 -4 -2.5 -6.5t-6.5 -2.5h-83q-9 0 -9 9v82q0 9 9 9h83q4 0 6.5 -2.5z
M772.5 509.5q2.5 -2.5 2.5 -6.5v-494q0 -4 -2.5 -6.5t-6.5 -2.5h-74q-8 0 -8 9v494q0 9 8 9h74q4 0 6.5 -2.5z" />
    <glyph glyph-name="f_f_l" unicode="ffl" horiz-adv-x="815" 
d="M588.5 687.5q2.5 -2.5 2.5 -6.5v-53q0 -9 -9 -9h-48q-33 0 -52 -20t-19 -53v-34h119q4 0 6.5 -2.5t2.5 -6.5v-52q0 -9 -9 -9h-119v-433q0 -4 -2.5 -6.5t-6.5 -2.5h-74q-8 0 -8 9v433h-55h-2h-119v-433q0 -9 -9 -9h-73q-4 0 -6.5 2.5t-2.5 6.5v433h-81q-9 0 -9 9v52
q0 4 2.5 6.5t6.5 2.5h81v33q0 66 40.5 105.5t110.5 39.5h59q4 0 6.5 -2.5t2.5 -6.5v-53q0 -9 -9 -9h-48q-33 0 -52 -20t-19 -53v-34h119h57v33q0 66 40 105.5t110 39.5h60q4 0 6.5 -2.5zM733.5 687.5q2.5 -2.5 2.5 -6.5v-672q0 -4 -2.5 -6.5t-6.5 -2.5h-74q-4 0 -6.5 2.5
t-2.5 6.5v672q0 4 2.5 6.5t6.5 2.5h74q4 0 6.5 -2.5z" />
    <glyph glyph-name=".notdef" horiz-adv-x="436" 
d="M20.5 2.5q-2.5 2.5 -2.5 6.5v470q0 4 2.5 6.5t6.5 2.5h382q9 0 9 -9v-470q0 -9 -9 -9h-382q-4 0 -6.5 2.5zM368 50v388h-300v-388h300z" />
    <glyph glyph-name=".null" 
 />
    <glyph glyph-name="nonmarkingreturn" horiz-adv-x="333" 
 />
    <glyph glyph-name="space" unicode=" " horiz-adv-x="229" 
 />
    <glyph glyph-name="exclam" unicode="!" horiz-adv-x="267" 
d="M99 204l-14 477q0 9 9 9h79q9 0 9 -9l-14 -477q0 -9 -9 -9h-51q-9 0 -9 9zM81.5 2.5q-2.5 2.5 -2.5 6.5v90q0 8 9 8h91q9 0 9 -8v-90q0 -4 -2.5 -6.5t-6.5 -2.5h-91q-4 0 -6.5 2.5z" />
    <glyph glyph-name="quotedbl" unicode="&#x22;" horiz-adv-x="364" 
d="M65 429v252q0 9 9 9h56q4 0 6.5 -2.5t2.5 -6.5v-252q0 -8 -9 -8h-56q-9 0 -9 8zM227 429v252q0 9 8 9h56q4 0 6.5 -2.5t2.5 -6.5v-252q0 -8 -9 -8h-56q-8 0 -8 8z" />
    <glyph glyph-name="numbersign" unicode="#" horiz-adv-x="645" 
d="M106 10l41 201h-103q-4 0 -6.5 2.5t-2.5 6.5v45q0 4 2.5 6.5t6.5 2.5h117l30 152h-108q-8 0 -8 9v43q0 8 8 8h121l41 196q2 8 10 8h48q9 0 8 -10l-40 -187h160l40 189q2 8 9 8h48q10 0 8 -10l-39 -192h104q9 0 9 -8v-45q0 -4 -2.5 -6.5t-6.5 -2.5h-117l-30 -152h107
q9 0 9 -9v-43q0 -9 -9 -9h-120l-42 -205q-2 -8 -10 -8h-49q-9 0 -8 10l42 196h-160l-41 -198q-2 -8 -10 -8h-49q-10 0 -8 10zM387 274l30 152h-160l-30 -152h160z" />
    <glyph glyph-name="dollar" unicode="$" horiz-adv-x="547" 
d="M458 54q-55 -54 -146 -61v-74q0 -4 -2.5 -6.5t-6.5 -2.5h-62q-4 0 -6.5 2.5t-2.5 6.5v77q-87 13 -145.5 68t-61.5 159q0 8 9 8h80q9 0 9 -8q4 -76 49.5 -111t115.5 -35q57 0 92.5 28t35.5 77q0 36 -22 61t-53 40.5t-88 37.5q-65 24 -105 45t-69 58.5t-29 95.5
q0 75 49 122.5t133 55.5v73q0 4 2.5 6.5t6.5 2.5h62q4 0 6.5 -2.5t2.5 -6.5v-74q79 -10 128 -56.5t52 -129.5q0 -9 -8 -9h-79q-8 0 -8 9q-2 56 -38 82.5t-95 26.5q-54 0 -86 -24.5t-32 -66.5q0 -31 20.5 -53.5t49.5 -37t83 -36.5q72 -29 112 -50t71 -60t31 -100
q0 -84 -55 -138z" />
    <glyph glyph-name="percent" unicode="%" horiz-adv-x="751" 
d="M98.5 408q-29.5 25 -42 61t-12.5 72q0 61 30.5 110.5t97.5 49.5q43 0 72.5 -23.5t44 -60t14.5 -76.5t-14 -76t-43 -59t-71 -23q-47 0 -76.5 25zM149.5 4q-2.5 3 0.5 7l360 672q3 6 11 6h68q5 0 6.5 -3t-0.5 -7l-360 -672q-3 -6 -11 -6h-67q-5 0 -7.5 3zM215 478.5
q15 27.5 15 63.5t-15.5 62.5t-42.5 26.5t-42 -26.5t-15 -63.5q0 -36 15.5 -63t42.5 -27t42 27.5zM502.5 23q-29.5 25 -42 61.5t-12.5 72.5q0 61 30.5 111t97.5 50q43 0 72.5 -23.5t44 -60.5t14.5 -77t-14 -76.5t-43 -59.5t-71 -23q-47 0 -76.5 25zM619 94q15 27 15 64
t-15 64t-43 27q-27 0 -42 -27.5t-15 -64.5t15.5 -63.5t43.5 -26.5q26 0 41 27z" />
    <glyph glyph-name="ampersand" unicode="&#x26;" horiz-adv-x="665" 
d="M661 5q0 -5 -7 -5h-102q-9 0 -12 5l-79 83q-38 -49 -87 -74.5t-115 -25.5q-60 0 -110 22.5t-79.5 66t-29.5 102.5q0 71 41.5 120t114.5 77q-35 34 -58 70.5t-23 85.5q0 52 24.5 89.5t65.5 56.5t88 19q73 0 122.5 -43t49.5 -120q0 -51 -33.5 -93.5t-108.5 -83.5l135 -139
l82 137q4 7 9 7h82q6 0 7.5 -3t-0.5 -8l-122 -192l142 -148q3 -3 3 -6zM230 598q-25 -26 -25 -67q0 -53 65 -120h1q58 30 83 59t25 64q0 38 -24 64t-61 26q-39 0 -64 -26zM339.5 84q33.5 21 62.5 66l-158 169q-54 -23 -82 -55t-28 -82q0 -35 18 -62t47 -42t61 -15
q46 0 79.5 21z" />
    <glyph glyph-name="quotesingle" unicode="'" horiz-adv-x="208" 
d="M65 443v252q0 9 9 9h60q9 0 9 -9v-252q0 -8 -9 -8h-60q-9 0 -9 8z" />
    <glyph glyph-name="parenleft" unicode="(" horiz-adv-x="274" 
d="M171 -150q-54 72 -89 198t-35 244q0 113 33.5 230.5t88.5 201.5q5 6 11 6h53q5 0 6.5 -3t-0.5 -8q-58 -87 -87.5 -198t-29.5 -230q0 -122 29.5 -234.5t86.5 -200.5l2 -5q0 -6 -8 -6h-50q-6 0 -11 5z" />
    <glyph glyph-name="parenright" unicode=")" horiz-adv-x="273" 
d="M47 -155q-5 0 -7 3.5t1 7.5q57 88 86.5 200.5t29.5 234.5q0 119 -29.5 230t-87.5 198q-1 2 -1 5q0 6 7 6h53q6 0 11 -6q55 -84 88.5 -201.5t33.5 -230.5q0 -118 -35 -244t-89 -198q-5 -5 -11 -5h-50z" />
    <glyph glyph-name="asterisk" unicode="*" horiz-adv-x="344" 
d="M105 408l-32 25q-6 7 -1 12l79 93l-113 17q-4 1 -5.5 3.5t-0.5 6.5l12 43q3 9 11 6l103 -46l-13 112v2q0 4 2.5 6t5.5 2h40q5 0 7.5 -3t1.5 -7l-16 -112l104 46l4 1q7 0 8 -7l11 -43l1 -3q0 -5 -7 -7l-111 -17l78 -93q6 -6 -1 -12l-32 -25q-4 -4 -7 -3t-5 5l-56 105
l-55 -105q-6 -9 -13 -2z" />
    <glyph glyph-name="plus" unicode="+" horiz-adv-x="650" 
d="M291 52v219h-214q-9 0 -9 9v50q0 9 9 9h214v219q0 9 9 9h51q8 0 8 -9v-219h215q8 0 8 -9v-50q0 -9 -8 -9h-215v-219q0 -9 -8 -9h-51q-9 0 -9 9z" />
    <glyph glyph-name="comma" unicode="," horiz-adv-x="266" 
d="M65 -149q-2 3 -1 7l41 142h-36q-4 0 -6.5 2.5t-2.5 6.5v100q0 8 9 8h104q9 0 9 -8v-104q0 -4 -2 -10l-61 -139q-3 -8 -11 -8h-36q-5 0 -7 3z" />
    <glyph glyph-name="hyphen" unicode="-" horiz-adv-x="321" 
d="M29 225v51q0 9 9 9h245q9 0 9 -9v-51q0 -8 -9 -8h-245q-9 0 -9 8z" />
    <glyph glyph-name="period" unicode="." horiz-adv-x="233" 
d="M57.5 2.5q-2.5 2.5 -2.5 6.5v100q0 8 9 8h104q9 0 9 -8v-100q0 -9 -9 -9h-104q-4 0 -6.5 2.5z" />
    <glyph glyph-name="slash" unicode="/" horiz-adv-x="470" 
d="M44 -72.5q-2 3.5 0 7.5l294 747q3 8 10 8h71q5 0 7 -3.5t0 -7.5l-295 -748q-3 -7 -10 -7h-70q-5 0 -7 3.5z" />
    <glyph glyph-name="zero" unicode="0" horiz-adv-x="551" 
d="M92 93q-58 103 -58 252q0 150 56.5 253t182.5 103q82 0 137 -48t81 -129t26 -181q0 -99 -26 -178.5t-79 -127t-132 -47.5q-130 0 -188 103zM387 156q31 79 31 190t-32 188.5t-113 77.5q-82 0 -114 -77.5t-32 -189.5t33 -190t117 -78q79 0 110 79z" />
    <glyph glyph-name="one" unicode="1" horiz-adv-x="391" 
d="M203.5 2.5q-2.5 2.5 -2.5 6.5v574q-31 -35 -71 -55.5t-80 -24.5q-9 0 -9 8v72q0 9 8 10q80 9 154 92q7 5 11 5h73q4 0 6.5 -2.5t2.5 -6.5v-672q0 -4 -2.5 -6.5t-6.5 -2.5h-77q-4 0 -6.5 2.5z" />
    <glyph glyph-name="two" unicode="2" horiz-adv-x="553" 
d="M55 82q0 67 27.5 113t66.5 74t102 62q52 28 81.5 47.5t49.5 48.5t20 69q0 55 -33.5 88t-85.5 33q-59 0 -93 -38.5t-35 -105.5q0 -8 -9 -8h-76q-9 0 -9 8q4 105 62.5 165.5t162.5 60.5q61 0 108.5 -26t74.5 -72t27 -104q0 -60 -27.5 -103t-66 -70t-102.5 -62
q-52 -28 -82 -48.5t-50.5 -48.5t-20.5 -65v-18h351q9 0 9 -9v-64q0 -9 -9 -9h-443v82z" />
    <glyph glyph-name="three" unicode="3" horiz-adv-x="546" 
d="M154.5 13q-53.5 23 -86 69t-34.5 113q0 9 9 9h72q9 0 9 -9q6 -57 48 -90t101 -33q61 0 105 35t44 95t-40.5 91.5t-100.5 31.5h-39q-9 0 -9 9v64q0 9 9 9h39q47 0 75.5 27t28.5 75q0 49 -35 78.5t-89 29.5q-52 0 -86.5 -29t-37.5 -78q-1 -8 -10 -8h-71q-9 0 -9 8
q0 59 28 102t76.5 65.5t109.5 22.5q60 0 108.5 -22t77 -63t28.5 -97q0 -54 -29 -93.5t-69 -50.5v-7q61 -11 97 -53.5t38 -113.5q0 -68 -32 -115.5t-86.5 -71t-120.5 -23.5q-65 0 -118.5 23z" />
    <glyph glyph-name="four" unicode="4" horiz-adv-x="546" 
d="M529 247v-62q0 -9 -9 -9h-96v-167q0 -4 -2.5 -6.5t-6.5 -2.5h-74q-4 0 -6.5 2.5t-2.5 6.5v167h-294q-9 0 -9 9v65q0 7 3 11l305 424q4 5 11 5h67q4 0 6.5 -2.5t2.5 -6.5v-425h96q9 0 9 -9zM332 564l-213 -308h213v308z" />
    <glyph glyph-name="five" unicode="5" horiz-adv-x="549" 
d="M415.5 427.5q48.5 -28.5 76.5 -80.5t28 -118q0 -69 -31 -123.5t-85 -85t-122 -30.5q-60 0 -113.5 24.5t-87.5 72.5t-37 115q0 4 2.5 6.5t6.5 2.5h77q9 0 10 -9q7 -63 48.5 -95.5t96.5 -32.5q60 0 99 43t39 112q0 66 -39 107.5t-99 41.5q-35 0 -70 -18.5t-56 -48.5
q-4 -6 -11 -6h-75q-10 0 -8 10l64 367q2 8 10 8h341q4 0 6.5 -2.5t2.5 -6.5v-62q0 -4 -2.5 -6.5t-6.5 -2.5h-279l-36 -208l2 -1q20 23 59 39t79 16q62 0 110.5 -28.5z" />
    <glyph glyph-name="six" unicode="6" horiz-adv-x="539" 
d="M100.5 67q-65.5 76 -66.5 230q-1 108 14 193t70 147.5t166 62.5q85 0 144 -44t68 -128v-2q0 -7 -8 -7h-76q-8 0 -8 8q-8 46 -40.5 68.5t-80.5 22.5q-91 0 -123 -72t-33 -166q56 66 156 66q66 0 116.5 -27.5t78 -78.5t27.5 -118q0 -63 -30.5 -116t-83.5 -84t-118 -31
q-107 0 -172.5 76zM372 115q40 41 40 105t-40 105t-102 41q-63 0 -101 -39.5t-38 -103.5q0 -65 38.5 -107t100.5 -42t102 41z" />
    <glyph glyph-name="seven" unicode="7" horiz-adv-x="455" 
d="M121.5 3q-1.5 3 -0.5 7l223 598h-314q-9 0 -9 9v64q0 9 9 9h398q9 0 9 -9v-76q0 -7 -1 -11l-216 -587q-1 -7 -10 -7h-82q-5 0 -6.5 3z" />
    <glyph glyph-name="eight" unicode="8" horiz-adv-x="549" 
d="M150.5 15q-55.5 25 -86.5 70.5t-31 103.5q0 65 38.5 116t99.5 65v4q-45 15 -74 57t-29 92t26.5 90.5t73.5 63.5t107 23q59 0 106 -23t73.5 -63.5t26.5 -90.5q0 -51 -29 -93.5t-74 -55.5v-4q62 -16 100 -66.5t38 -114.5q0 -58 -31 -103.5t-85.5 -70.5t-123.5 -25
q-70 0 -125.5 25zM357 435.5q32 30.5 32 77.5t-32 78t-80 31q-50 0 -81.5 -30.5t-31.5 -76.5q0 -49 31.5 -79.5t81.5 -30.5q48 0 80 30.5zM378 106.5q41 36.5 41 94.5q0 57 -41 93.5t-104 36.5q-64 0 -104.5 -36.5t-40.5 -93.5q0 -58 40.5 -94.5t104.5 -36.5q63 0 104 36.5z
" />
    <glyph glyph-name="nine" unicode="9" horiz-adv-x="539" 
d="M438.5 623q65.5 -76 66.5 -230q1 -108 -14 -193t-70 -147.5t-166 -62.5q-85 0 -144 44t-68 128v2q0 7 8 7h76q8 0 8 -8q8 -46 40.5 -68.5t80.5 -22.5q91 0 123 72t33 166q-55 -66 -156 -66q-66 0 -116.5 27.5t-78 78.5t-27.5 118q0 63 30.5 116t83.5 84t118 31
q107 0 172.5 -76zM167 575q-40 -41 -40 -105t40 -105t102 -41q63 0 101 39.5t38 103.5q0 65 -38.5 107t-100.5 42t-102 -41z" />
    <glyph glyph-name="colon" unicode=":" horiz-adv-x="236" 
d="M58.5 2.5q-2.5 2.5 -2.5 6.5v100q0 8 9 8h104q9 0 9 -8v-100q0 -9 -9 -9h-104q-4 0 -6.5 2.5zM58.5 371.5q-2.5 2.5 -2.5 6.5v100q0 8 9 8h104q9 0 9 -8v-100q0 -9 -9 -9h-104q-4 0 -6.5 2.5z" />
    <glyph glyph-name="semicolon" unicode=";" horiz-adv-x="270" 
d="M69 -149q-2 3 -1 7l41 142h-36q-4 0 -6.5 2.5t-2.5 6.5v100q0 8 9 8h104q9 0 9 -8v-104q0 -4 -2 -10l-61 -139q-3 -8 -11 -8h-36q-5 0 -7 3zM64.5 371.5q-2.5 2.5 -2.5 6.5v100q0 8 9 8h104q9 0 9 -8v-100q0 -9 -9 -9h-104q-4 0 -6.5 2.5z" />
    <glyph glyph-name="less" unicode="&#x3c;" horiz-adv-x="593" 
d="M62 323q-4 2 -4 6t4 6l443 242l5 2q6 0 6 -8v-65q0 -5 -6 -11l-297 -160q-4 -2 -4 -6t4 -6l297 -158q6 -3 6 -10v-68q0 -5 -3.5 -7t-7.5 1z" />
    <glyph glyph-name="equal" unicode="=" horiz-adv-x="519" 
d="M68 390v62q0 9 9 9h366q8 0 8 -9v-62q0 -9 -8 -9h-366q-9 0 -9 9zM68 204v62q0 9 9 9h366q8 0 8 -9v-62q0 -9 -8 -9h-366q-9 0 -9 9z" />
    <glyph glyph-name="greater" unicode="&#x3e;" horiz-adv-x="600" 
d="M95 79q-6 0 -6 8v68q0 7 7 10l296 158q5 2 5 6t-5 6l-296 160q-7 5 -7 11v65q0 5 3.5 7t7.5 -1l443 -242q5 -2 5 -6t-5 -6l-443 -242z" />
    <glyph glyph-name="question" unicode="?" horiz-adv-x="467" 
d="M192 202v94q0 33 10.5 54.5t25.5 33.5t42 29q27 15 42 26.5t25.5 31t10.5 50.5q0 49 -32 75.5t-83 26.5q-48 0 -81.5 -27t-37.5 -72q-1 -9 -10 -9h-64q-9 0 -9 9q3 51 28.5 91t69.5 62.5t99 22.5q87 0 144.5 -46t57.5 -133q0 -42 -13 -69.5t-31 -42.5t-47 -32l-18 -11
q-26 -17 -38.5 -32t-12.5 -39v-93q0 -9 -9 -9h-61q-8 0 -8 9zM179 9v90q0 8 9 8h89q8 0 8 -8v-90q0 -9 -8 -9h-89q-9 0 -9 9z" />
    <glyph glyph-name="at" unicode="@" horiz-adv-x="963" 
d="M477 -169q-114 1 -209 60t-150.5 158.5t-55.5 216.5q0 118 56 217.5t153 157.5t213 58q119 0 217 -57.5t154.5 -155.5t56.5 -215q0 -91 -35.5 -166.5t-100.5 -103.5l-163 -1q-43 31 -43 89q0 11 1 17q-27 -33 -67.5 -52t-83.5 -19q-73 0 -113 51t-40 130q0 68 27 135.5
t78 111.5t119 44q49 0 85 -23.5t46 -64.5l10 55q2 8 10 8h57q10 0 8 -10l-68 -352q-3 -13 -3 -26q0 -17 8 -28l117 2q40 26 59 86.5t19 122.5q0 94 -47 174.5t-128.5 128.5t-179.5 48q-96 0 -176 -48.5t-126.5 -131t-46.5 -180.5t45 -180t123.5 -131t173.5 -50q8 0 8 -9v-58
q0 -9 -8 -9zM517 141.5q38 33.5 58 84.5t20 101t-22.5 77.5t-68.5 27.5q-51 0 -89 -33t-58 -83.5t-20 -101.5q0 -50 22.5 -78t68.5 -28q51 0 89 33.5z" />
    <glyph glyph-name="A" unicode="A" horiz-adv-x="599" 
d="M592 11q0 -5 -3 -8t-7 -3h-82q-6 0 -8 6l-47 150h-290l-47 -150q-1 -2 -3 -4t-5 -2h-82q-5 0 -8 4t-2 9l226 672q2 5 8 5h116q6 0 8 -5l226 -672v-2zM420 234l-119 379h-2l-119 -379h240z" />
    <glyph glyph-name="B" unicode="B" horiz-adv-x="647" 
d="M91 9v672q0 9 9 9h258q100 0 157.5 -49.5t57.5 -135.5q0 -39 -16 -69.5t-40 -49t-47 -24.5v-4q37 -3 68.5 -25t50 -59.5t18.5 -83.5q0 -88 -58.5 -139t-154.5 -51h-294q-9 0 -9 9zM348 392q54 0 91.5 30t37.5 81q0 104 -121 104h-170v-215h162zM383 88q65 0 96.5 29.5
t31.5 82.5q0 52 -37 82t-91 30h-197v-224h197z" />
    <glyph glyph-name="C" unicode="C" horiz-adv-x="670" 
d="M186 34.5q-71 44.5 -108.5 124.5t-37.5 186t37.5 186.5t108.5 125t167 44.5q69 0 132 -29.5t104 -87t45 -136.5q0 -4 -2.5 -7t-6.5 -3h-71q-7 0 -9 8q-11 79 -62 123.5t-130 44.5q-101 0 -160 -71.5t-59 -193.5q0 -83 27 -144.5t77 -94.5t117 -33q48 0 89 21.5t68 59.5
t33 87q2 8 9 8h71q4 0 6.5 -3.5t2.5 -8.5q-6 -78 -46.5 -135t-102.5 -86.5t-131 -29.5q-97 0 -168 44.5z" />
    <glyph glyph-name="D" unicode="D" horiz-adv-x="668" 
d="M91 9v672q0 9 9 9h177q170 0 260.5 -90t90.5 -259q0 -164 -91.5 -252.5t-260.5 -88.5h-176q-9 0 -9 9zM264 87q135 0 201.5 64t66.5 194t-64 194.5t-193 64.5h-89v-517h78z" />
    <glyph glyph-name="E" unicode="E" horiz-adv-x="594" 
d="M91 9v672q0 9 9 9h434q4 0 6.5 -2.5t2.5 -6.5v-66q0 -4 -2.5 -6.5t-6.5 -2.5h-348v-219h306q9 0 9 -9v-66q0 -9 -9 -9h-306v-219h348q4 0 6.5 -2.5t2.5 -6.5v-66q0 -4 -2.5 -6.5t-6.5 -2.5h-434q-9 0 -9 9z" />
    <glyph glyph-name="F" unicode="F" horiz-adv-x="560" 
d="M91 9v672q0 9 9 9h436q9 0 9 -9v-66q0 -9 -9 -9h-350v-219h307q9 0 9 -9v-66q0 -9 -9 -9h-307v-294q0 -9 -9 -9h-77q-9 0 -9 9z" />
    <glyph glyph-name="G" unicode="G" horiz-adv-x="726" 
d="M650 5q0 -5 -5 -5h-58q-6 0 -6 4l-10 88q-75 -100 -218 -100q-99 0 -169.5 46.5t-107 127t-36.5 181.5q0 99 35.5 179t107 127.5t174.5 47.5q82 0 148 -31.5t104.5 -88.5t40.5 -132q0 -9 -9 -9h-74q-4 0 -6.5 2.5t-2.5 5.5q-7 81 -62 124t-140 43q-111 0 -166 -75.5
t-55 -192.5q0 -118 55 -193t166 -75q79 0 133.5 35t67.5 102l-4 28l7 5v4h-192q-9 0 -9 9v59q0 9 9 9h273q9 0 9 -9v-316z" />
    <glyph glyph-name="H" unicode="H" horiz-adv-x="703" 
d="M91 9v672q0 9 9 9h77q9 0 9 -9v-294h331v294q0 9 9 9h77q9 0 9 -9v-672q0 -9 -9 -9h-77q-9 0 -9 9v294h-331v-294q0 -9 -9 -9h-77q-9 0 -9 9z" />
    <glyph glyph-name="I" unicode="I" horiz-adv-x="277" 
d="M91 9v672q0 9 9 9h77q9 0 9 -9v-672q0 -9 -9 -9h-77q-9 0 -9 9z" />
    <glyph glyph-name="J" unicode="J" horiz-adv-x="369" 
d="M21 -2q-7 1 -7 10v70q0 5 3 6.5t7 0.5q35 -10 65 -10q118 0 118 163v443q0 4 2.5 6.5t6.5 2.5h78q4 0 6.5 -2.5t2.5 -6.5v-451q0 -113 -51.5 -176.5t-156.5 -63.5q-43 0 -74 8z" />
    <glyph glyph-name="K" unicode="K" horiz-adv-x="633" 
d="M622 5q0 -5 -7 -5h-102q-8 0 -11 5l-244 319l-72 -77v-238q0 -9 -9 -9h-77q-9 0 -9 9v672q0 9 9 9h77q9 0 9 -9v-316l287 320q4 5 11 5h99q5 0 7 -3.5t-2 -7.5l-270 -290l302 -378q2 -2 2 -6z" />
    <glyph glyph-name="L" unicode="L" horiz-adv-x="490" 
d="M91 9v672q0 9 9 9h77q9 0 9 -9v-597h286q9 0 9 -9v-66q0 -9 -9 -9h-372q-9 0 -9 9z" />
    <glyph glyph-name="M" unicode="M" horiz-adv-x="863" 
d="M91 9v672q0 9 9 9h133q8 0 11 -8l187 -585l187 585q3 8 11 8h134q9 0 9 -9v-672q0 -9 -9 -9h-78q-8 0 -8 9v584h-4l-186 -586q-3 -7 -11 -7h-90q-7 0 -11 7l-185 586h-4v-584q0 -4 -2.5 -6.5t-6.5 -2.5h-77q-9 0 -9 9z" />
    <glyph glyph-name="N" unicode="N" horiz-adv-x="734" 
d="M91 9v672q0 9 9 9h106q5 0 11 -6l326 -562h5v559q0 9 9 9h78q8 0 8 -9v-672q0 -9 -8 -9h-109q-7 0 -11 6l-325 566h-4v-563q0 -9 -9 -9h-77q-9 0 -9 9z" />
    <glyph glyph-name="O" unicode="O" horiz-adv-x="712" 
d="M188 33.5q-71 43.5 -109.5 123.5t-38.5 188t38.5 188t109.5 123.5t168 43.5t168 -43.5t109.5 -123.5t38.5 -188t-38.5 -188t-109.5 -123.5t-168 -43.5t-168 43.5zM516.5 147.5q59.5 71.5 59.5 197.5q0 127 -59 198t-161 71q-101 0 -160 -71t-59 -198q0 -126 59 -197.5
t160 -71.5t160.5 71.5z" />
    <glyph glyph-name="P" unicode="P" horiz-adv-x="639" 
d="M91 9v672q0 9 9 9h282q107 0 169 -57.5t62 -159.5q0 -100 -60.5 -155t-170.5 -55h-196v-254q0 -9 -9 -9h-77q-9 0 -9 9zM380 345q138 0 138 127q0 64 -35 99t-103 35h-194v-261h194z" />
    <glyph glyph-name="Q" unicode="Q" horiz-adv-x="712" 
d="M685.5 -94.5q2.5 -2.5 2.5 -6.5v-60q0 -4 -2.5 -6.5t-6.5 -2.5q-56 1 -91 13.5t-54.5 29t-41.5 44.5q-18 24 -33 38t-40.5 24t-63.5 11h-1q-96 0 -167 44t-109 124t-38 187q0 108 38.5 188t109.5 123.5t168 43.5t168 -43.5t109.5 -123.5t38.5 -188q0 -119 -46 -204
t-131 -123q15 -8 25.5 -18t18 -19t10.5 -12q18 -20 31.5 -31.5t37.5 -20t61 -9.5q4 0 6.5 -2.5zM196 147.5q59 -71.5 160 -71.5t160.5 71.5t59.5 197.5q0 127 -59 198t-161 71q-101 0 -160 -71t-59 -198q0 -126 59 -197.5z" />
    <glyph glyph-name="R" unicode="R" horiz-adv-x="648" 
d="M611 10q1 -2 1 -5q0 -6 -7 -6h-89q-7 0 -10 6l-128 258h-192v-254q0 -9 -9 -9h-77q-9 0 -9 9v672q0 9 9 9h282q107 0 169 -57.5t62 -159.5q0 -78 -36 -128.5t-105 -70.5zM186 345h194q138 0 138 127q0 64 -35 99t-103 35h-194v-261z" />
    <glyph glyph-name="S" unicode="S" horiz-adv-x="547" 
d="M163 14.5q-58 22.5 -97 74t-41 134.5q0 8 9 8h80q9 0 9 -8q4 -76 49.5 -111t115.5 -35q57 0 92.5 28t35.5 77q0 36 -22 61t-53 40.5t-88 37.5q-65 24 -105 45t-69 58.5t-29 95.5q0 83 59 131.5t156 48.5t160.5 -46.5t66.5 -142.5q0 -9 -8 -9h-79q-8 0 -8 9
q-2 56 -38 82.5t-95 26.5q-54 0 -86 -24.5t-32 -66.5q0 -31 20.5 -53.5t49.5 -37t83 -36.5q72 -29 112 -50t71 -60t31 -100q0 -60 -28.5 -105t-80 -70t-118.5 -25q-65 0 -123 22.5z" />
    <glyph glyph-name="T" unicode="T" horiz-adv-x="567" 
d="M236 9v598h-218q-9 0 -9 9v65q0 9 9 9h531q4 0 6.5 -2.5t2.5 -6.5v-65q0 -4 -2.5 -6.5t-6.5 -2.5h-218v-598q0 -9 -9 -9h-77q-9 0 -9 9z" />
    <glyph glyph-name="U" unicode="U" horiz-adv-x="663" 
d="M147 57.5q-65 67.5 -65 188.5v435q0 9 8 9h78q9 0 9 -9v-439q0 -77 41 -121t113 -44t113.5 44t41.5 121v439q0 9 8 9h78q9 0 9 -9v-430q0 -123 -65.5 -192t-184.5 -69t-184 67.5z" />
    <glyph glyph-name="V" unicode="V" horiz-adv-x="608" 
d="M598 680l-225 -673q-3 -7 -10 -7h-117q-6 0 -10 7l-225 673l-1 3q0 7 8 7h80q8 0 10 -7l196 -611l195 611q4 7 11 7h81q9 0 7 -10z" />
    <glyph glyph-name="W" unicode="W" horiz-adv-x="909" 
d="M172 8l-161 672l-1 3q0 7 8 7h81q8 0 10 -8l131 -592l154 593q0 3 2.5 5t6.5 2h102q8 0 10 -7l153 -593l131 592q2 8 10 8h81q5 0 6.5 -3t0.5 -7l-161 -672q-2 -8 -10 -8h-112q-8 0 -10 7l-150 584l-150 -584q-2 -7 -10 -7h-112q-8 0 -10 8z" />
    <glyph glyph-name="X" unicode="X" horiz-adv-x="591" 
d="M11.5 3q-1.5 3 1.5 8l222 334l-221 334q-2 4 -2 6q0 5 7 5h97q5 0 11 -6l169 -268l169 268q4 6 11 6h96q5 0 6.5 -3t-0.5 -8l-222 -334l223 -334q1 -2 1 -5q0 -6 -7 -6h-96q-7 0 -11 6l-171 263l-169 -263q-6 -6 -11 -6h-97q-5 0 -6.5 3z" />
    <glyph glyph-name="Y" unicode="Y" horiz-adv-x="660" 
d="M282 9v261l-272 409l-2 5q0 6 8 6h90q8 0 11 -5l213 -329l213 329q4 5 11 5h91q5 0 6.5 -3t-0.5 -8l-274 -409v-261q0 -9 -9 -9h-78q-8 0 -8 9z" />
    <glyph glyph-name="Z" unicode="Z" horiz-adv-x="576" 
d="M555 611l-419 -527h414q4 0 6.5 -2.5t2.5 -6.5v-66q0 -4 -2.5 -6.5t-6.5 -2.5h-524q-4 0 -6.5 2.5t-2.5 6.5v56q0 6 4 11l419 530h-392q-4 0 -6.5 2.5t-2.5 6.5v66q0 4 2.5 6.5t6.5 2.5h502q4 0 6.5 -2.5t2.5 -6.5v-60q0 -6 -4 -10z" />
    <glyph glyph-name="bracketleft" unicode="[" horiz-adv-x="277" 
d="M73 -151v872q0 4 2.5 6.5t6.5 2.5h170q4 0 6.5 -2.5t2.5 -6.5v-51q0 -4 -2.5 -6.5t-6.5 -2.5h-103v-750h103q4 0 6.5 -2.5t2.5 -6.5v-53q0 -8 -9 -8h-170q-9 0 -9 8z" />
    <glyph glyph-name="backslash" unicode="\" horiz-adv-x="470" 
d="M338 -69l-294 748q-1 1 -1 4q0 7 8 7h70q7 0 10 -8l295 -747q1 -1 1 -4q0 -7 -8 -7h-71q-7 0 -10 7z" />
    <glyph glyph-name="bracketright" unicode="]" horiz-adv-x="277" 
d="M16 -89h111v750h-111v69h187v-889h-187v70z" />
    <glyph glyph-name="asciicircum" unicode="^" horiz-adv-x="397" 
d="M14.5 324q-1.5 3 0.5 8l177 345q3 5 6.5 5t5.5 -5l178 -345q1 -2 1 -5q0 -2 -2 -4t-5 -2h-70q-6 0 -10 7l-98 208l-97 -208q-3 -7 -10 -7h-70q-5 0 -6.5 3z" />
    <glyph glyph-name="underscore" unicode="_" horiz-adv-x="391" 
d="M-1 -60v51q0 9 9 9h375q9 0 9 -9v-51q0 -8 -9 -8h-375q-9 0 -9 8z" />
    <glyph glyph-name="grave" unicode="`" horiz-adv-x="197" 
d="M124 552l-124 103q-3 3 -3 6q0 5 7 5h88q6 0 11 -5l93 -103q3 -3 3 -5q0 -5 -7 -5h-58q-7 0 -10 4z" />
    <glyph glyph-name="a" unicode="a" horiz-adv-x="523" 
d="M92.5 29q-45.5 40 -45.5 108q0 50 26.5 87.5t72.5 56.5q22 9 42.5 12.5t59.5 8.5q42 4 72.5 10.5t60.5 23.5q10 6 10 17q-1 53 -31 78.5t-91 25.5q-59 0 -97 -21.5t-42 -69.5q0 -10 -9 -10h-57q-4 0 -6.5 3t-2.5 7q4 77 64 116.5t144 39.5q90 0 146 -44.5t56 -129.5v-339
q0 -9 -9 -9h-55q-10 0 -10 9v63q-69 -83 -177 -83q-76 0 -121.5 40zM318 79q40 23 67 65q6 6 6 18v111q-28 -15 -58 -22t-67 -12q-33 -5 -51.5 -9t-34.5 -13q-49 -25 -49 -84q0 -38 27.5 -58t73.5 -20q46 1 86 24z" />
    <glyph glyph-name="b" unicode="b" horiz-adv-x="604" 
d="M169 72v-63q0 -4 -2.5 -6.5t-6.5 -2.5h-73q-4 0 -6.5 2.5t-2.5 6.5v672q0 4 2.5 6.5t6.5 2.5h74q4 0 6.5 -2.5t2.5 -6.5v-242q59 83 172 83q109 0 165.5 -73.5t56.5 -192.5q0 -120 -56.5 -193.5t-166.5 -73.5q-112 0 -172 83zM433 117.5q39 48.5 39 138.5q0 88 -39 136.5
t-117 48.5q-70 0 -110.5 -50t-40.5 -135q0 -87 40.5 -137t110.5 -50q78 0 117 48.5z" />
    <glyph glyph-name="c" unicode="c" horiz-adv-x="549" 
d="M157.5 19.5q-55.5 30.5 -86.5 90.5t-31 144q0 86 31 146t86.5 91t127.5 31q94 0 157.5 -52t72.5 -145v-2q0 -4 -2.5 -6t-5.5 -2h-71q-8 0 -10 9q-6 57 -43.5 87.5t-96.5 30.5q-72 0 -113.5 -47t-41.5 -141q0 -92 41.5 -138.5t113.5 -46.5q58 0 95.5 29.5t44.5 85.5
q2 9 10 9h69q5 0 7.5 -3t1.5 -7q-9 -91 -72 -142.5t-157 -51.5q-72 0 -127.5 30.5z" />
    <glyph glyph-name="d" unicode="d" horiz-adv-x="604" 
d="M96.5 62.5q-56.5 73.5 -56.5 193.5q0 119 56.5 192.5t165.5 73.5q113 0 172 -83v242q0 4 2.5 6.5t6.5 2.5h74q4 0 6.5 -2.5t2.5 -6.5v-672q0 -4 -2.5 -6.5t-6.5 -2.5h-73q-4 0 -6.5 2.5t-2.5 6.5v63q-60 -83 -172 -83q-110 0 -166.5 73.5zM398.5 119q40.5 50 40.5 137
q0 85 -40.5 135t-110.5 50q-78 0 -117 -48.5t-39 -136.5q0 -90 39 -138.5t117 -48.5q70 0 110.5 50z" />
    <glyph glyph-name="e" unicode="e" horiz-adv-x="534" 
d="M443 446.5q53 -75.5 53 -183.5v-26q-1 -9 -11 -9h-357q5 -76 43 -119t106 -43q54 0 87 25.5t42 72.5q2 9 10 9h60q11 0 9 -13q-14 -83 -70 -126.5t-134 -43.5t-132 35.5t-81.5 96t-27.5 133.5t25.5 133.5t78 97t131.5 36.5q115 0 168 -75.5zM168.5 404.5
q-36.5 -40.5 -41.5 -107.5h283q-2 69 -36 108.5t-101 39.5q-68 0 -104.5 -40.5z" />
    <glyph glyph-name="f" unicode="f" horiz-adv-x="337" 
d="M107.5 2.5q-2.5 2.5 -2.5 6.5v433h-81q-9 0 -9 9v52q0 4 2.5 6.5t6.5 2.5h81v33q0 66 40.5 105.5t110.5 39.5h59q4 0 6.5 -2.5t2.5 -6.5v-53q0 -9 -9 -9h-48q-33 0 -52 -20t-19 -53v-34h119q4 0 6.5 -2.5t2.5 -6.5v-52q0 -9 -9 -9h-119v-433q0 -9 -9 -9h-73
q-4 0 -6.5 2.5z" />
    <glyph glyph-name="g" unicode="g" horiz-adv-x="605" 
d="M122.5 -144.5q-63.5 43.5 -69.5 127.5v2q0 7 8 7h74q8 0 9 -8q7 -47 44.5 -74.5t102.5 -27.5q68 0 106 33t38 87v82q-27 -36 -70.5 -56t-98.5 -20q-72 0 -123 34t-77 92.5t-26 132.5q0 114 60 184.5t172 70.5q48 0 89 -17.5t69 -54.5h4v53q0 9 9 9h74q4 0 6.5 -2.5
t2.5 -6.5v-492q0 -96 -63 -147.5t-172 -51.5q-105 0 -168.5 43.5zM404 131q37 47 37 126q0 81 -38 135t-117 54q-76 0 -114.5 -51t-38.5 -131q0 -79 39 -129.5t118 -50.5q77 0 114 47z" />
    <glyph glyph-name="h" unicode="h" horiz-adv-x="567" 
d="M80.5 2.5q-2.5 2.5 -2.5 6.5v672q0 4 2.5 6.5t6.5 2.5h74q4 0 6.5 -2.5t2.5 -6.5v-235q23 36 65 56t91 20q79 0 125 -51t46 -137v-325q0 -4 -2.5 -6.5t-6.5 -2.5h-73q-9 0 -9 9v312q0 60 -26.5 90.5t-77.5 30.5q-57 0 -94.5 -40t-37.5 -100v-293q0 -4 -2.5 -6.5
t-6.5 -2.5h-74q-4 0 -6.5 2.5z" />
    <glyph glyph-name="i" unicode="i" horiz-adv-x="258" 
d="M80.5 592.5q-2.5 2.5 -2.5 6.5v82q0 4 2.5 6.5t6.5 2.5h83q9 0 9 -9v-82q0 -9 -9 -9h-83q-4 0 -6.5 2.5zM85.5 2.5q-2.5 2.5 -2.5 6.5v494q0 4 2.5 6.5t6.5 2.5h74q8 0 8 -9v-494q0 -9 -8 -9h-74q-4 0 -6.5 2.5z" />
    <glyph glyph-name="j" unicode="j" horiz-adv-x="258" 
d="M81.5 591.5q-2.5 2.5 -2.5 6.5v83q0 4 2.5 6.5t6.5 2.5h83q4 0 6.5 -2.5t2.5 -6.5v-83q0 -4 -2.5 -6.5t-6.5 -2.5h-83q-4 0 -6.5 2.5zM-18.5 -175.5q-2.5 2.5 -2.5 6.5v57q0 9 9 9q47 3 72 29.5t25 68.5v508q0 9 9 9h73q9 0 9 -9v-500q0 -88 -48 -133.5t-140 -47.5
q-4 0 -6.5 2.5z" />
    <glyph glyph-name="k" unicode="k" horiz-adv-x="522" 
d="M526 5q0 -5 -7 -5h-91q-6 0 -11 5l-184 243l-63 -62v-177q0 -4 -2.5 -6.5t-6.5 -2.5h-74q-4 0 -6.5 2.5t-2.5 6.5v672q0 4 2.5 6.5t6.5 2.5h74q4 0 6.5 -2.5t2.5 -6.5v-386l217 212q5 5 11 5h90q6 0 7 -3.5t-3 -7.5l-200 -195l232 -295q2 -2 2 -6z" />
    <glyph glyph-name="l" unicode="l" horiz-adv-x="251" 
d="M80 9v672q0 9 8 9h74q4 0 6.5 -2.5t2.5 -6.5v-672q0 -4 -2.5 -6.5t-6.5 -2.5h-74q-8 0 -8 9z" />
    <glyph glyph-name="m" unicode="m" horiz-adv-x="842" 
d="M80.5 2.5q-2.5 2.5 -2.5 6.5v494q0 4 2.5 6.5t6.5 2.5h73q4 0 6.5 -2.5t2.5 -6.5v-52q23 35 59.5 53t83.5 18q48 0 84 -22t53 -64q46 86 156 86q81 0 124 -50t43 -139v-324q0 -4 -2.5 -6.5t-6.5 -2.5h-74q-4 0 -6.5 2.5t-2.5 6.5v319q0 116 -96 116q-57 0 -85.5 -39.5
t-28.5 -102.5v-293q0 -4 -2.5 -6.5t-6.5 -2.5h-74q-4 0 -6.5 2.5t-2.5 6.5v320q0 55 -21.5 85t-71.5 30q-58 0 -86.5 -39.5t-28.5 -102.5v-293q0 -4 -2.5 -6.5t-6.5 -2.5h-74q-4 0 -6.5 2.5z" />
    <glyph glyph-name="n" unicode="n" horiz-adv-x="567" 
d="M80.5 2.5q-2.5 2.5 -2.5 6.5v494q0 4 2.5 6.5t6.5 2.5h74q4 0 6.5 -2.5t2.5 -6.5v-59q24 37 64.5 57.5t90.5 20.5q79 0 125.5 -51t46.5 -137v-325q0 -4 -2.5 -6.5t-6.5 -2.5h-73q-9 0 -9 9v308q0 125 -101 125q-60 0 -97.5 -39.5t-37.5 -105.5v-288q0 -4 -2.5 -6.5
t-6.5 -2.5h-74q-4 0 -6.5 2.5z" />
    <glyph glyph-name="o" unicode="o" horiz-adv-x="570" 
d="M157.5 19.5q-55.5 30.5 -86.5 90.5t-31 144q0 86 31 146t86.5 91t127.5 31q71 0 126.5 -31t87 -91.5t31.5 -145.5q0 -84 -31.5 -143.5t-87 -90.5t-126.5 -31q-72 0 -127.5 30.5zM399.5 115.5q41.5 46.5 41.5 138.5q0 94 -41.5 141t-113.5 47t-113.5 -47t-41.5 -141
q0 -92 41.5 -138.5t113.5 -46.5t113.5 46.5z" />
    <glyph glyph-name="p" unicode="p" horiz-adv-x="603" 
d="M80.5 -175.5q-2.5 2.5 -2.5 6.5v672q0 4 2.5 6.5t6.5 2.5h72q9 0 9 -9v-65q31 42 76 63t98 21q68 0 118 -34.5t76.5 -95t26.5 -136.5q0 -77 -26.5 -137.5t-76.5 -95t-119 -34.5q-54 0 -98.5 19.5t-73.5 61.5v-239q0 -4 -2.5 -6.5t-6.5 -2.5h-73q-4 0 -6.5 2.5zM430 116.5
q42 50.5 42 140.5q0 88 -42 138t-115 50q-70 0 -112 -50.5t-42 -137.5q0 -89 42 -140t112 -51q73 0 115 50.5z" />
    <glyph glyph-name="q" unicode="q" horiz-adv-x="603" 
d="M443 -178q-8 0 -8 9v239q-56 -81 -173 -81q-68 0 -118.5 34.5t-77 95t-26.5 137.5q0 76 26.5 136.5t76.5 95t118 34.5q53 0 98 -21t76 -63v65q0 4 2.5 6.5t6.5 2.5h72q4 0 6.5 -2.5t2.5 -6.5v-672q0 -4 -2.5 -6.5t-6.5 -2.5h-73zM400.5 117q41.5 51 41.5 140
q0 87 -41.5 137.5t-112.5 50.5q-73 0 -115 -50t-42 -138q0 -90 42 -140.5t115 -50.5q71 0 112.5 51z" />
    <glyph glyph-name="r" unicode="r" horiz-adv-x="348" 
d="M80.5 2.5q-2.5 2.5 -2.5 6.5v494q0 4 2.5 6.5t6.5 2.5h73q4 0 6.5 -2.5t2.5 -6.5v-60q18 36 49.5 56.5t72.5 20.5q20 0 43 -6q8 -2 8 -10v-69q0 -7 -6 -7h-7q-22 7 -46 7q-53 0 -83 -40t-30 -100v-286q0 -4 -2.5 -6.5t-6.5 -2.5h-74q-4 0 -6.5 2.5z" />
    <glyph glyph-name="s" unicode="s" horiz-adv-x="473" 
d="M103 30q-64 45 -68 134q0 4 2.5 6.5t6.5 2.5h67q9 0 9 -9q3 -53 35 -79q34 -24 92 -24q46 0 76 20t30 61q0 27 -17.5 43.5t-43 25t-74.5 19.5q-55 13 -90 26t-59 40.5t-24 73.5q0 73 51 112.5t136 39.5q81 0 132 -35q63 -42 66 -123q0 -9 -8 -9h-63q-9 0 -9 9
q-3 45 -34 67q-31 20 -83 20q-47 0 -75 -19.5t-28 -52.5q0 -23 18 -37t42 -21.5t82 -21.5q54 -13 88.5 -28t57.5 -44t23 -76q0 -75 -50 -118.5t-126 -43.5q-106 0 -162 41z" />
    <glyph glyph-name="t" unicode="t" horiz-adv-x="327" 
d="M91 135v307h-67q-9 0 -9 9v52q0 4 2.5 6.5t6.5 2.5h67v129q0 4 2.5 6.5t6.5 2.5h73q4 0 6.5 -2.5t2.5 -6.5v-129h112q8 0 8 -9v-52q0 -9 -8 -9h-112v-286q0 -46 15.5 -64.5t53.5 -18.5h43q8 0 8 -8v-56q0 -9 -8 -9h-73q-130 0 -130 135z" />
    <glyph glyph-name="u" unicode="u" horiz-adv-x="567" 
d="M117 42.5q-47 51.5 -47 136.5v324q0 4 2.5 6.5t6.5 2.5h73q9 0 9 -9v-308q0 -121 103 -121q60 0 96.5 39t36.5 101v289q0 4 2.5 6.5t6.5 2.5h74q8 0 8 -9v-494q0 -9 -8 -9h-74q-4 0 -6.5 2.5t-2.5 6.5v60q-56 -78 -152 -78q-81 0 -128 51.5z" />
    <glyph glyph-name="v" unicode="v" horiz-adv-x="542" 
d="M517.5 509q1.5 -3 0.5 -7l-182 -495q-3 -7 -11 -7h-108q-8 0 -11 7l-182 495l-1 3q0 7 8 7h83q8 0 10 -7l147 -435l147 435q4 7 11 7h82q5 0 6.5 -3z" />
    <glyph glyph-name="w" unicode="w" horiz-adv-x="733" 
d="M717 502l-114 -494q-2 -8 -9 -8h-112q-5 0 -9 7l-107 384l-106 -384q-3 -7 -10 -7h-112q-8 0 -10 8l-112 494v3q0 7 7 7h81q8 0 10 -8l83 -437l125 438q4 7 10 7h67q8 0 10 -7l126 -438l84 437q2 8 10 8h81q9 0 7 -10z" />
    <glyph glyph-name="x" unicode="x" horiz-adv-x="525" 
d="M9.5 3q-1.5 3 1.5 8l191 247l-191 243q-2 4 -2 6q0 5 7 5h92q7 0 12 -5l144 -188l142 188q3 5 11 5h92q5 0 7 -3.5t-2 -7.5l-191 -243l191 -247q2 -2 2 -6q0 -5 -7 -5h-92q-8 0 -11 5l-142 192l-144 -192q-5 -5 -12 -5h-92q-5 0 -6.5 3z" />
    <glyph glyph-name="y" unicode="y" horiz-adv-x="492" 
d="M33 -169v59q0 9 9 9q53 0 85 14t47.5 34t31.5 53l-191 501v3q0 8 8 8h81q7 0 10 -7l135 -394l134 394q4 7 10 7h82q4 0 6.5 -3t0.5 -8l-199 -523q-24 -64 -59.5 -98t-78.5 -45.5t-103 -12.5q-9 0 -9 9z" />
    <glyph glyph-name="z" unicode="z" horiz-adv-x="458" 
d="M430 435l-291 -358h283q9 0 9 -9v-59q0 -4 -2.5 -6.5t-6.5 -2.5h-387q-4 0 -6.5 2.5t-2.5 6.5v52q0 6 4 10l297 365h-283q-9 0 -9 9v58q0 4 2.5 6.5t6.5 2.5h381q4 0 6.5 -2.5t2.5 -6.5v-58q0 -6 -4 -10z" />
    <glyph glyph-name="braceleft" unicode="{" horiz-adv-x="293" 
d="M129 -170q-27 36 -27 94v234q0 56 -56 71q-8 2 -8 10v56q0 9 8 9q56 16 56 71v235q0 58 27 93.5t83 35.5l48 -1q4 0 6.5 -2.5t2.5 -6.5v-54q0 -4 -2.5 -6.5t-6.5 -2.5l-15 1q-32 0 -46.5 -14t-14.5 -48v-237q0 -35 -15.5 -58.5t-47.5 -42.5q32 -21 47.5 -43.5t15.5 -57.5
v-238q0 -36 17.5 -49.5t58.5 -11.5h2q3 0 5 -2.5t2 -5.5v-54q0 -4 -2.5 -6.5t-6.5 -2.5l-48 -2q-56 0 -83 36z" />
    <glyph glyph-name="bar" unicode="|" horiz-adv-x="250" 
d="M92 -67v807q0 9 9 9h49q8 0 8 -9v-807q0 -9 -8 -9h-49q-9 0 -9 9z" />
    <glyph glyph-name="braceright" unicode="}" horiz-adv-x="292" 
d="M32 -204q-8 0 -8 9v54q0 9 9 8q41 -2 58.5 11.5t17.5 49.5v238q0 35 15 58t47 43q-31 19 -46.5 42t-15.5 59v237q0 33 -14.5 47.5t-46.5 14.5l-15 -1q-9 0 -9 9v54q0 9 8 9l48 1q57 0 83.5 -35.5t26.5 -93.5v-235q0 -54 56 -71q8 0 8 -9v-56q0 -8 -8 -10q-56 -15 -56 -71
v-234q0 -58 -26.5 -94t-83.5 -36z" />
    <glyph glyph-name="asciitilde" unicode="~" horiz-adv-x="488" 
d="M276.5 203.5q-24.5 14.5 -52.5 40.5q-24 21 -39.5 31t-34.5 10q-48 0 -46 -72q0 -4 -2.5 -6.5t-6.5 -2.5h-48q-4 0 -6.5 2.5t-2.5 6.5q1 62 29.5 99.5t81.5 37.5q42 0 69 -15t56 -43q21 -19 34.5 -27.5t30.5 -8.5q28 0 39.5 20t12.5 62q0 8 9 8h52q9 0 9 -10
q-2 -70 -35 -108.5t-91 -38.5q-34 0 -58.5 14.5z" />
    <glyph glyph-name="exclamdown" unicode="&#xa1;" horiz-adv-x="267" 
d="M79 512h109v-107h-109v107zM99 317h69l14 -506h-97z" />
    <glyph glyph-name="cent" unicode="&#xa2;" horiz-adv-x="549" 
d="M512.5 190q2.5 -3 1.5 -7q-8 -79 -57 -128.5t-125 -61.5v-92q0 -4 -2.5 -6.5t-6.5 -2.5h-59q-4 0 -6.5 2.5t-2.5 6.5v89q-98 10 -156.5 79t-58.5 185q0 118 58.5 187.5t156.5 79.5v90q0 4 2.5 6.5t6.5 2.5h59q4 0 6.5 -2.5t2.5 -6.5v-93q76 -12 125.5 -62t57.5 -131v-2
q0 -4 -2.5 -6t-5.5 -2h-71q-8 0 -10 9q-6 57 -43.5 87.5t-96.5 30.5q-72 0 -113.5 -47t-41.5 -141q0 -92 41.5 -138.5t113.5 -46.5q58 0 95.5 29.5t44.5 85.5q2 9 10 9h69q5 0 7.5 -3z" />
    <glyph glyph-name="sterling" unicode="&#xa3;" horiz-adv-x="549" 
d="M34.5 2.5q-2.5 2.5 -2.5 6.5v56q0 7 6 11q47 27 80.5 64t33.5 98q0 14 -3.5 34t-8.5 33h-97q-9 0 -9 9v59q0 9 9 9h78q-9 28 -15 51.5t-6 60.5q0 60 24.5 107.5t69 74t102.5 26.5q79 0 128 -40.5t63 -110.5l1 -3q0 -7 -8 -7h-67q-8 0 -10 8q-16 77 -110 77
q-53 0 -84.5 -36t-31.5 -99q0 -57 23 -109h205q8 0 8 -9v-59q0 -9 -8 -9h-186q8 -24 8 -66q0 -52 -17 -88t-38 -56.5t-21 -17.5h380q9 0 9 -9v-59q0 -9 -9 -9h-490q-4 0 -6.5 2.5z" />
    <glyph glyph-name="currency" unicode="&#xa4;" horiz-adv-x="614" 
d="M112 36l-67 65q-6 6 0 12l90 81q-16 23 -25 52.5t-9 60.5t9 60t25 52l-96 75q-4 2 -4.5 5.5t2.5 6.5l67 65q3 3 6 3q4 0 7 -4l73 -93q47 36 113 36q63 0 112 -35l78 89q5 6 12 1l67 -66q3 -3 3 -6.5t-4 -5.5l-101 -71q33 -47 33 -112t-33 -113l99 -81q5 -5 1 -13l-67 -64
q-3 -4 -7 -4t-6 4l-75 100q-48 -35 -112 -35t-113 36l-65 -100q-6 -8 -13 -1zM384 219.5q31 33.5 31 87.5t-31 87.5t-82 34.5q-51 -1 -81.5 -34.5t-30.5 -87.5t30.5 -87.5t81.5 -34.5q51 1 82 34.5z" />
    <glyph glyph-name="yen" unicode="&#xa5;" horiz-adv-x="605" 
d="M264.5 2.5q-2.5 2.5 -2.5 6.5v79h-138q-9 0 -9 9v47q0 9 9 9h138v105h-138q-9 0 -9 8v47q0 9 9 9h111l-225 357l-2 5q0 6 8 6h71q6 0 10 -6l205 -331l205 331q6 6 11 6h71q5 0 6.5 -3t-0.5 -8l-226 -357h111q4 0 6.5 -2.5t2.5 -6.5v-47q0 -8 -9 -8h-138v-105h138
q4 0 6.5 -2.5t2.5 -6.5v-47q0 -9 -9 -9h-138v-79q0 -9 -8 -9h-63q-4 0 -6.5 2.5z" />
    <glyph glyph-name="brokenbar" unicode="&#xa6;" horiz-adv-x="254" 
d="M91 381v300q0 9 8 9h56q4 0 6.5 -2.5t2.5 -6.5v-300q0 -9 -9 -9h-56q-8 0 -8 9zM91 -67v289q0 9 8 9h56q4 0 6.5 -2.5t2.5 -6.5v-289q0 -4 -2.5 -6.5t-6.5 -2.5h-56q-8 0 -8 9z" />
    <glyph glyph-name="section" unicode="&#xa7;" horiz-adv-x="520" 
d="M132 25.5q-55 34.5 -67 118.5q0 10 8 10h69q7 0 9 -8q11 -43 41 -61.5t79 -18.5q47 0 77 16.5t30 54.5q0 25 -16 40t-40 22t-67 16q-54 11 -87.5 22.5t-57.5 38.5t-24 73q0 69 52 110q-25 16 -38 41.5t-13 56.5q0 67 51 105t128 38q70 0 122 -34.5t64 -109.5l1 -3
q0 -6 -9 -6h-64q-8 0 -10 9q-10 71 -106 71q-45 0 -72 -19.5t-27 -52.5q0 -34 29 -47.5t90 -25.5q55 -11 89.5 -23t59 -40t24.5 -77q0 -68 -48 -107q48 -34 48 -97q0 -74 -54 -110.5t-135 -36.5t-136 34.5zM364.5 297q10.5 17 10.5 36q0 8 -1 11q-3 39 -37 55t-93 27l-29 6
q-24 -10 -36.5 -31t-10.5 -43q1 -36 34.5 -52t90.5 -28q16 -2 37 -8q24 10 34.5 27z" />
    <glyph glyph-name="dieresis" unicode="&#xa8;" horiz-adv-x="289" 
d="M19 574v83q0 4 2.5 6.5t6.5 2.5h69q8 0 8 -9v-83q0 -8 -8 -8h-69q-9 0 -9 8zM183 574v83q0 4 2.5 6.5t6.5 2.5h69q4 0 6.5 -2.5t2.5 -6.5v-83q0 -8 -9 -8h-69q-9 0 -9 8z" />
    <glyph glyph-name="copyright" unicode="&#xa9;" horiz-adv-x="816" 
d="M223.5 24q-84.5 50 -134 135.5t-49.5 185.5q0 101 49.5 186.5t134 135.5t183.5 50q100 0 184.5 -50t134.5 -135.5t50 -186.5q0 -100 -50 -185.5t-134.5 -135.5t-184.5 -50q-99 0 -183.5 50zM564.5 70.5q72.5 43.5 115 116.5t42.5 158t-42.5 158.5t-115 117t-157.5 43.5
q-84 0 -156 -43.5t-115 -117t-43 -158.5t43 -158t115 -116.5t156 -43.5q85 0 157.5 43.5zM281 198q-47 58 -47 146t46.5 146t133.5 58q61 0 104.5 -34.5t51.5 -105.5q0 -9 -9 -9h-55q-8 0 -9 8q-5 37 -28 53.5t-55 16.5q-55 0 -82.5 -37.5t-27.5 -95.5t27 -95t82 -37
q33 0 56.5 17t27.5 55q0 9 9 9h56q4 0 6.5 -3.5t1.5 -9.5q-9 -69 -53 -104.5t-102 -35.5q-87 0 -134 58z" />
    <glyph glyph-name="ordfeminine" unicode="&#xaa;" horiz-adv-x="350" 
d="M63 381q-31 28 -31 74q0 34 18 59.5t50 38.5q25 10 70 14q30 3 50 7.5t40 15.5q7 4 7 12q-2 36 -22 53.5t-62 17.5q-40 0 -66 -15t-28 -47q0 -7 -7 -7h-38q-6 0 -6 7q2 52 43 79.5t98 27.5q61 0 100 -30.5t39 -88.5v-232q0 -6 -7 -6h-37q-7 0 -7 6v43q-47 -57 -121 -57
q-52 0 -83 28zM216 414.5q27 15.5 47 44.5q4 5 4 13v75q-33 -17 -86 -23q-6 -1 -25.5 -4.5t-32.5 -10.5q-34 -18 -34 -57q0 -26 18.5 -39.5t50.5 -13.5q31 0 58 15.5z" />
    <glyph glyph-name="guillemotleft" unicode="&#xab;" horiz-adv-x="520" 
d="M251.5 116.5q-3.5 -1.5 -7.5 2.5l-174 174q-3 4 -3 6.5t3 6.5l174 172q3 3 6 3q5 0 5 -7v-71q0 -5 -5 -10l-88 -93l88 -94q5 -5 5 -10v-72q0 -6 -3.5 -7.5zM451.5 116.5q-3.5 -1.5 -7.5 2.5l-174 174q-3 4 -3 6.5t3 6.5l174 172q3 3 6 3q5 0 5 -7v-71q0 -5 -5 -10
l-88 -93l88 -94q5 -5 5 -10v-72q0 -6 -3.5 -7.5z" />
    <glyph glyph-name="registered" unicode="&#xae;" horiz-adv-x="621" 
d="M180.5 207.5q-59.5 35.5 -94 96t-34.5 132.5t34.5 132.5t94 96t129.5 35.5t129.5 -35.5t94.5 -96t35 -132.5t-35 -132.5t-94.5 -96t-129.5 -35.5t-129.5 35.5zM418 246q50 30 80 81t30 109t-30 109t-80 81.5t-108 30.5t-108 -30.5t-79.5 -81t-29.5 -109.5t29.5 -109.5
t79.5 -80.5t108 -30t108 30zM224.5 301.5q-2.5 2.5 -2.5 6.5v253q0 9 9 9h97q45 0 69.5 -21t24.5 -59q0 -58 -54 -77l63 -103l2 -5q0 -6 -8 -6h-42q-8 0 -10 6l-56 102h-41v-99q0 -4 -2.5 -6.5t-6.5 -2.5h-36q-4 0 -6.5 2.5zM328 453q44 0 44 37t-44 37h-56v-74h56z" />
    <glyph glyph-name="macron" unicode="&#xaf;" horiz-adv-x="321" 
d="M28 589v39q0 8 9 8h248q9 0 9 -8v-39q0 -9 -9 -9h-248q-9 0 -9 9z" />
    <glyph glyph-name="degree" unicode="&#xb0;" horiz-adv-x="374" 
d="M110.5 420q-34.5 20 -54.5 54.5t-20 76.5q0 41 20 75.5t54.5 54t76.5 19.5t76.5 -19.5t54.5 -54t20 -75.5q0 -42 -20 -76.5t-54.5 -54.5t-76.5 -20t-76.5 20zM247.5 490.5q24.5 24.5 24.5 60.5q0 35 -25 59.5t-60 24.5q-36 0 -60.5 -24.5t-24.5 -59.5q0 -37 24.5 -61
t60.5 -24t60.5 24.5z" />
    <glyph glyph-name="plusminus" unicode="&#xb1;" horiz-adv-x="650" 
d="M291 61v210h-214q-9 0 -9 9v50q0 9 9 9h214v219q0 9 9 9h51q8 0 8 -9v-219h215q8 0 8 -9v-50q0 -9 -8 -9h-215v-210q0 -9 -8 -9h-51q-9 0 -9 9zM69 -60v51q0 9 9 9h495q9 0 9 -9v-51q0 -8 -9 -8h-495q-9 0 -9 8z" />
    <glyph glyph-name="acute" unicode="&#xb4;" horiz-adv-x="197" 
d="M3.5 551.5q-1.5 3.5 2.5 7.5l93 102q4 5 11 5h87q6 0 7 -3.5t-3 -7.5l-131 -103q-5 -4 -11 -4h-48q-6 0 -7.5 3.5z" />
    <glyph glyph-name="uni00B5" unicode="&#xb5;" horiz-adv-x="497" 
d="M75 -121v600q0 9 8 9h72q9 0 9 -9v-280q0 -56 21 -92.5t73 -36.5q37 0 69 19.5t51 52.5t19 69v268q0 9 8 9h72q9 0 9 -9v-470q0 -9 -9 -9h-72q-8 0 -8 9v70q-19 -36 -59 -63t-88 -27q-47 0 -86 21l-9 -131q0 -4 -3 -6.5t-7 -2.5h-62q-8 0 -8 9z" />
    <glyph glyph-name="paragraph" unicode="&#xb6;" horiz-adv-x="558" 
d="M260 -131v435q-58 0 -108.5 23.5t-81.5 67t-31 102.5t31 102.5t81.5 67t108.5 23.5h56q8 0 8 -9v-812q0 -9 -8 -9h-47q-9 0 -9 9zM414.5 -137.5q-2.5 2.5 -2.5 6.5v812q0 4 2.5 6.5t6.5 2.5h48q4 0 6.5 -2.5t2.5 -6.5v-812q0 -4 -2.5 -6.5t-6.5 -2.5h-48q-4 0 -6.5 2.5z
" />
    <glyph glyph-name="periodcentered" unicode="&#xb7;" horiz-adv-x="243" 
d="M75 351.5q-19 19.5 -19 46.5q0 28 18.5 46.5t46.5 18.5q27 0 46.5 -19t19.5 -46t-19.5 -46.5t-46.5 -19.5t-46 19.5z" />
    <glyph glyph-name="cedilla" unicode="&#xb8;" horiz-adv-x="186" 
d="M42 -228.5q-24 15.5 -37 39.5q-1 1 -1 4q0 6 5 8l32 16q2 1 5 1q5 0 7 -5q5 -12 15.5 -19.5t24.5 -7.5q18 0 31 13t13 32q0 30 -42 43l-53 17q-8 3 -4 12l41 75h63l-40 -61q46 -13 69 -32.5t23 -52.5q0 -43 -29.5 -70.5t-68.5 -27.5q-30 0 -54 15.5z" />
    <glyph glyph-name="ordmasculine" unicode="&#xba;" horiz-adv-x="389" 
d="M108 372.5q-38 23.5 -59.5 64t-21.5 89.5q0 48 21.5 88.5t59.5 64t87 23.5q48 0 86.5 -23.5t59.5 -64t21 -88.5q0 -49 -21 -89.5t-59.5 -64t-86.5 -23.5q-49 0 -87 23.5zM269.5 439q24.5 34 24.5 87q0 52 -24.5 86t-74.5 34q-51 0 -75.5 -34t-24.5 -86q0 -53 24.5 -87
t75.5 -34q50 0 74.5 34z" />
    <glyph glyph-name="guillemotright" unicode="&#xbb;" horiz-adv-x="522" 
d="M71 116q-5 0 -5 8v72q0 4 4 10l88 94l-88 93q-4 6 -4 10v71q0 5 3 6.5t7 -2.5l175 -172q3 -4 2.5 -6.5t-2.5 -6.5l-175 -174q-3 -3 -5 -3zM271 116q-5 0 -5 8v72q0 4 4 10l88 94l-88 93q-4 6 -4 10v71q0 5 3 6.5t7 -2.5l175 -172q3 -4 3 -6.5t-3 -6.5l-175 -174
q-3 -3 -5 -3z" />
    <glyph glyph-name="questiondown" unicode="&#xbf;" horiz-adv-x="449" 
d="M295 503v-90q0 -8 -8 -8h-89q-9 0 -9 8v90q0 9 9 9h89q8 0 8 -9zM283 310v-94q0 -33 -11 -54.5t-25.5 -33.5t-42.5 -29q-27 -15 -42 -26.5t-25.5 -31t-10.5 -50.5q0 -49 32.5 -75.5t83.5 -26.5q48 0 81 27t37 72q2 9 10 9h64q9 0 9 -9q-3 -51 -28.5 -91t-69.5 -62.5
t-99 -22.5q-87 0 -144 46t-57 133q0 61 23.5 90t50.5 44.5t35 20.5q25 16 37.5 31t12.5 40v93q0 9 9 9h61q9 0 9 -9z" />
    <glyph glyph-name="Agrave" unicode="&#xc0;" horiz-adv-x="599" 
d="M592 11q0 -5 -3 -8t-7 -3h-82q-6 0 -8 6l-47 150h-290l-47 -150q-1 -2 -3 -4t-5 -2h-82q-5 0 -8 4t-2 9l226 672q2 5 8 5h116q6 0 8 -5l226 -672v-2zM420 234l-119 379h-2l-119 -379h240zM258 754l-124 103q-3 3 -3 6q0 5 7 5h88q6 0 11 -5l93 -103q3 -3 3 -5q0 -5 -7 -5
h-58q-6 0 -10 4z" />
    <glyph glyph-name="Aacute" unicode="&#xc1;" horiz-adv-x="599" 
d="M592 11q0 -5 -3 -8t-7 -3h-82q-6 0 -8 6l-47 150h-290l-47 -150q-1 -2 -3 -4t-5 -2h-82q-5 0 -8 4t-2 9l226 672q2 5 8 5h116q6 0 8 -5l226 -672v-2zM420 234l-119 379h-2l-119 -379h240zM273.5 753.5q-1.5 3.5 2.5 7.5l93 102q4 5 11 5h87q6 0 7 -3.5t-3 -7.5l-131 -103
q-5 -4 -11 -4h-48q-6 0 -7.5 3.5z" />
    <glyph glyph-name="Acircumflex" unicode="&#xc2;" horiz-adv-x="599" 
d="M592 11q0 -5 -3 -8t-7 -3h-82q-6 0 -8 6l-47 150h-290l-47 -150q-1 -2 -3 -4t-5 -2h-82q-5 0 -8 4t-2 9l226 672q2 5 8 5h116q6 0 8 -5l226 -672v-2zM420 234l-119 379h-2l-119 -379h240zM167 740q-1 3 3 8l102 108q3 5 10 5h36q6 0 11 -5l102 -108q3 -4 3 -7q0 -4 -7 -4
h-54q-6 0 -11 5l-56 62q-5 7 -12 0l-55 -62q-3 -5 -10 -5h-55q-6 0 -7 3z" />
    <glyph glyph-name="Atilde" unicode="&#xc3;" horiz-adv-x="599" 
d="M592 11q0 -5 -3 -8t-7 -3h-82q-6 0 -8 6l-47 150h-290l-47 -150q-1 -2 -3 -4t-5 -2h-82q-5 0 -8 4t-2 9l226 672q2 5 8 5h116q6 0 8 -5l226 -672v-2zM420 234l-119 379h-2l-119 -379h240zM126 760q2 52 25.5 80t68.5 28q31 0 50.5 -10.5t43.5 -31.5q20 -16 31.5 -22.5
t26.5 -6.5q43 0 46 62q0 9 9 9h40q4 0 6.5 -2.5t2.5 -6.5q-2 -57 -28.5 -86t-70.5 -29q-29 0 -48.5 10t-43.5 30q-18 15 -31 22.5t-28 7.5q-20 0 -31.5 -14.5t-13.5 -39.5q0 -9 -9 -9h-38q-8 0 -8 9z" />
    <glyph glyph-name="Adieresis" unicode="&#xc4;" horiz-adv-x="599" 
d="M592 11q0 -5 -3 -8t-7 -3h-82q-6 0 -8 6l-47 150h-290l-47 -150q-1 -2 -3 -4t-5 -2h-82q-5 0 -8 4t-2 9l226 672q2 5 8 5h116q6 0 8 -5l226 -672v-2zM420 234l-119 379h-2l-119 -379h240zM175 776v83q0 4 2.5 6.5t6.5 2.5h69q8 0 8 -9v-83q0 -8 -8 -8h-69q-9 0 -9 8z
M339 776v83q0 4 2.5 6.5t6.5 2.5h69q4 0 6.5 -2.5t2.5 -6.5v-83q0 -8 -9 -8h-69q-9 0 -9 8z" />
    <glyph glyph-name="Aring" unicode="&#xc5;" horiz-adv-x="599" 
d="M592 11q0 -5 -3 -8t-7 -3h-82q-6 0 -8 6l-47 150h-290l-47 -150q-1 -2 -3 -4t-5 -2h-82q-5 0 -8 4t-2 9l220 654q-32 32 -32 78q0 43 30.5 73t73.5 30t74 -30t31 -73q0 -22 -9 -42t-24 -35l220 -655v-2zM260.5 784q-14.5 -15 -14.5 -39q0 -21 12 -36t31 -19h22
q20 4 32.5 19t12.5 36q0 23 -16 38.5t-40 15.5q-25 0 -39.5 -15zM420 234l-119 379h-2l-119 -379h240z" />
    <glyph glyph-name="AE" unicode="&#xc6;" horiz-adv-x="867" 
d="M465 605v-218h299q9 0 9 -8v-67q0 -9 -9 -9h-299v-216h342q4 0 6.5 -2.5t2.5 -6.5v-69q0 -4 -2.5 -6.5t-6.5 -2.5h-426q-9 0 -9 9v140h-211l-53 -142q-3 -7 -10 -7h-83q-10 0 -8 11l259 672q3 7 10 7h531q4 0 6.5 -2.5t2.5 -6.5v-67q0 -4 -2.5 -6.5t-6.5 -2.5h-342z
M372 233v376h-41l-139 -376h180z" />
    <glyph glyph-name="Ccedilla" unicode="&#xc7;" horiz-adv-x="670" 
d="M631.5 249.5q2.5 -3.5 2.5 -8.5q-5 -70 -39 -123t-86.5 -85t-113.5 -40l-35 -54q46 -13 69 -32.5t23 -52.5q0 -43 -29.5 -70.5t-68.5 -27.5q-30 0 -54 15.5t-37 39.5q-1 1 -1 4q0 6 5 8l32 16q2 1 5 1q5 0 7 -5q5 -12 15.5 -19.5t24.5 -7.5q18 0 31 13t13 32q0 30 -42 43
l-53 17q-8 3 -4 12l36 66q-91 5 -156.5 50.5t-100.5 123.5t-35 180q0 106 37.5 186.5t108.5 125t167 44.5q69 0 132 -29.5t104 -87t45 -136.5q0 -4 -2.5 -7t-6.5 -3h-71q-7 0 -9 8q-11 79 -62 123.5t-130 44.5q-101 0 -160 -71.5t-59 -193.5q0 -83 27 -144.5t77 -94.5
t117 -33q48 0 89 21.5t68 59.5t33 87q2 8 9 8h71q4 0 6.5 -3.5z" />
    <glyph glyph-name="Egrave" unicode="&#xc8;" horiz-adv-x="594" 
d="M91 9v672q0 9 9 9h434q4 0 6.5 -2.5t2.5 -6.5v-66q0 -4 -2.5 -6.5t-6.5 -2.5h-348v-219h306q9 0 9 -9v-66q0 -9 -9 -9h-306v-219h348q4 0 6.5 -2.5t2.5 -6.5v-66q0 -4 -2.5 -6.5t-6.5 -2.5h-434q-9 0 -9 9zM274 754l-124 103q-3 3 -3 6q0 5 7 5h88q6 0 11 -5l93 -103
q3 -3 3 -5q0 -5 -7 -5h-58q-6 0 -10 4z" />
    <glyph glyph-name="Eacute" unicode="&#xc9;" horiz-adv-x="594" 
d="M91 9v672q0 9 9 9h434q4 0 6.5 -2.5t2.5 -6.5v-66q0 -4 -2.5 -6.5t-6.5 -2.5h-348v-219h306q9 0 9 -9v-66q0 -9 -9 -9h-306v-219h348q4 0 6.5 -2.5t2.5 -6.5v-66q0 -4 -2.5 -6.5t-6.5 -2.5h-434q-9 0 -9 9zM290.5 753.5q-1.5 3.5 2.5 7.5l93 102q4 5 11 5h87q6 0 7 -3.5
t-3 -7.5l-131 -103q-5 -4 -11 -4h-48q-6 0 -7.5 3.5z" />
    <glyph glyph-name="Ecircumflex" unicode="&#xca;" horiz-adv-x="594" 
d="M91 9v672q0 9 9 9h434q4 0 6.5 -2.5t2.5 -6.5v-66q0 -4 -2.5 -6.5t-6.5 -2.5h-348v-219h306q9 0 9 -9v-66q0 -9 -9 -9h-306v-219h348q4 0 6.5 -2.5t2.5 -6.5v-66q0 -4 -2.5 -6.5t-6.5 -2.5h-434q-9 0 -9 9zM184 740q-1 3 3 8l102 108q3 5 10 5h36q6 0 11 -5l102 -108
q3 -4 3 -7q0 -4 -7 -4h-54q-6 0 -11 5l-56 62q-5 7 -12 0l-55 -62q-3 -5 -10 -5h-55q-6 0 -7 3z" />
    <glyph glyph-name="Edieresis" unicode="&#xcb;" horiz-adv-x="594" 
d="M91 9v672q0 9 9 9h434q4 0 6.5 -2.5t2.5 -6.5v-66q0 -4 -2.5 -6.5t-6.5 -2.5h-348v-219h306q9 0 9 -9v-66q0 -9 -9 -9h-306v-219h348q4 0 6.5 -2.5t2.5 -6.5v-66q0 -4 -2.5 -6.5t-6.5 -2.5h-434q-9 0 -9 9zM192 776v83q0 4 2.5 6.5t6.5 2.5h69q8 0 8 -9v-83q0 -8 -8 -8
h-69q-9 0 -9 8zM356 776v83q0 4 2.5 6.5t6.5 2.5h69q4 0 6.5 -2.5t2.5 -6.5v-83q0 -8 -9 -8h-69q-9 0 -9 8z" />
    <glyph glyph-name="Igrave" unicode="&#xcc;" horiz-adv-x="277" 
d="M91 9v672q0 9 9 9h77q9 0 9 -9v-672q0 -9 -9 -9h-77q-9 0 -9 9zM96 754l-124 103q-3 3 -3 6q0 5 7 5h88q6 0 11 -5l93 -103q3 -3 3 -5q0 -5 -7 -5h-58q-6 0 -10 4z" />
    <glyph glyph-name="Iacute" unicode="&#xcd;" horiz-adv-x="277" 
d="M91 9v672q0 9 9 9h77q9 0 9 -9v-672q0 -9 -9 -9h-77q-9 0 -9 9zM112.5 753.5q-1.5 3.5 2.5 7.5l93 102q4 5 11 5h87q6 0 7 -3.5t-3 -7.5l-131 -103q-5 -4 -11 -4h-48q-6 0 -7.5 3.5z" />
    <glyph glyph-name="Icircumflex" unicode="&#xce;" horiz-adv-x="277" 
d="M91 9v672q0 9 9 9h77q9 0 9 -9v-672q0 -9 -9 -9h-77q-9 0 -9 9zM6 740q-1 3 3 8l102 108q3 5 10 5h36q6 0 11 -5l102 -108q3 -4 3 -7q0 -4 -7 -4h-54q-6 0 -11 5l-56 62q-5 7 -12 0l-55 -62q-3 -5 -10 -5h-55q-6 0 -7 3z" />
    <glyph glyph-name="Idieresis" unicode="&#xcf;" horiz-adv-x="277" 
d="M91 9v672q0 9 9 9h77q9 0 9 -9v-672q0 -9 -9 -9h-77q-9 0 -9 9zM13 776v83q0 4 2.5 6.5t6.5 2.5h69q8 0 8 -9v-83q0 -8 -8 -8h-69q-9 0 -9 8zM177 776v83q0 4 2.5 6.5t6.5 2.5h69q4 0 6.5 -2.5t2.5 -6.5v-83q0 -8 -9 -8h-69q-9 0 -9 8z" />
    <glyph glyph-name="Eth" unicode="&#xd0;" horiz-adv-x="658" 
d="M82.5 2.5q-2.5 2.5 -2.5 6.5v305h-48q-9 0 -9 8v52q0 8 9 8h48v299q0 4 2.5 6.5t6.5 2.5h175q171 0 262.5 -90t91.5 -260q0 -163 -92.5 -251.5t-262.5 -88.5h-174q-4 0 -6.5 2.5zM251 85q125 0 199 64t74 196q0 261 -262 261h-89v-224h167q9 0 9 -8v-52q0 -8 -9 -8h-167
v-229h78z" />
    <glyph glyph-name="Ntilde" unicode="&#xd1;" horiz-adv-x="734" 
d="M91 9v672q0 9 9 9h106q5 0 11 -6l326 -562h5v559q0 9 9 9h78q8 0 8 -9v-672q0 -9 -8 -9h-109q-7 0 -11 6l-325 566h-4v-563q0 -9 -9 -9h-77q-9 0 -9 9zM192 760q2 52 25.5 80t68.5 28q31 0 50.5 -10.5t43.5 -31.5q20 -16 31.5 -22.5t26.5 -6.5q43 0 46 62q0 9 9 9h40
q4 0 6.5 -2.5t2.5 -6.5q-2 -57 -28.5 -86t-70.5 -29q-29 0 -48.5 10t-43.5 30q-18 15 -31 22.5t-28 7.5q-20 0 -31.5 -14.5t-13.5 -39.5q0 -9 -9 -9h-38q-8 0 -8 9z" />
    <glyph glyph-name="Ograve" unicode="&#xd2;" horiz-adv-x="712" 
d="M188 33.5q-71 43.5 -109.5 123.5t-38.5 188t38.5 188t109.5 123.5t168 43.5t168 -43.5t109.5 -123.5t38.5 -188t-38.5 -188t-109.5 -123.5t-168 -43.5t-168 43.5zM516.5 147.5q59.5 71.5 59.5 197.5q0 127 -59 198t-161 71q-101 0 -160 -71t-59 -198q0 -126 59 -197.5
t160 -71.5t160.5 71.5zM313 754l-124 103q-3 3 -3 6q0 5 7 5h88q6 0 11 -5l93 -103q3 -3 3 -5q0 -5 -7 -5h-58q-6 0 -10 4z" />
    <glyph glyph-name="Oacute" unicode="&#xd3;" horiz-adv-x="712" 
d="M188 33.5q-71 43.5 -109.5 123.5t-38.5 188t38.5 188t109.5 123.5t168 43.5t168 -43.5t109.5 -123.5t38.5 -188t-38.5 -188t-109.5 -123.5t-168 -43.5t-168 43.5zM516.5 147.5q59.5 71.5 59.5 197.5q0 127 -59 198t-161 71q-101 0 -160 -71t-59 -198q0 -126 59 -197.5
t160 -71.5t160.5 71.5zM328.5 753.5q-1.5 3.5 2.5 7.5l93 102q4 5 11 5h87q6 0 7 -3.5t-3 -7.5l-131 -103q-5 -4 -11 -4h-48q-6 0 -7.5 3.5z" />
    <glyph glyph-name="Ocircumflex" unicode="&#xd4;" horiz-adv-x="712" 
d="M188 33.5q-71 43.5 -109.5 123.5t-38.5 188t38.5 188t109.5 123.5t168 43.5t168 -43.5t109.5 -123.5t38.5 -188t-38.5 -188t-109.5 -123.5t-168 -43.5t-168 43.5zM516.5 147.5q59.5 71.5 59.5 197.5q0 127 -59 198t-161 71q-101 0 -160 -71t-59 -198q0 -126 59 -197.5
t160 -71.5t160.5 71.5zM223 740q-1 3 3 8l102 108q3 5 10 5h36q6 0 11 -5l102 -108q3 -4 3 -7q0 -4 -7 -4h-54q-6 0 -11 5l-56 62q-5 7 -12 0l-55 -62q-3 -5 -10 -5h-55q-6 0 -7 3z" />
    <glyph glyph-name="Otilde" unicode="&#xd5;" horiz-adv-x="712" 
d="M188 33.5q-71 43.5 -109.5 123.5t-38.5 188t38.5 188t109.5 123.5t168 43.5t168 -43.5t109.5 -123.5t38.5 -188t-38.5 -188t-109.5 -123.5t-168 -43.5t-168 43.5zM516.5 147.5q59.5 71.5 59.5 197.5q0 127 -59 198t-161 71q-101 0 -160 -71t-59 -198q0 -126 59 -197.5
t160 -71.5t160.5 71.5zM181 760q2 52 25.5 80t68.5 28q31 0 50.5 -10.5t43.5 -31.5q20 -16 31.5 -22.5t26.5 -6.5q43 0 46 62q0 9 9 9h40q4 0 6.5 -2.5t2.5 -6.5q-2 -57 -28.5 -86t-70.5 -29q-29 0 -48.5 10t-43.5 30q-18 15 -31 22.5t-28 7.5q-20 0 -31.5 -14.5
t-13.5 -39.5q0 -9 -9 -9h-38q-8 0 -8 9z" />
    <glyph glyph-name="Odieresis" unicode="&#xd6;" horiz-adv-x="712" 
d="M188 33.5q-71 43.5 -109.5 123.5t-38.5 188t38.5 188t109.5 123.5t168 43.5t168 -43.5t109.5 -123.5t38.5 -188t-38.5 -188t-109.5 -123.5t-168 -43.5t-168 43.5zM516.5 147.5q59.5 71.5 59.5 197.5q0 127 -59 198t-161 71q-101 0 -160 -71t-59 -198q0 -126 59 -197.5
t160 -71.5t160.5 71.5zM230 776v83q0 4 2.5 6.5t6.5 2.5h69q8 0 8 -9v-83q0 -8 -8 -8h-69q-9 0 -9 8zM394 776v83q0 4 2.5 6.5t6.5 2.5h69q4 0 6.5 -2.5t2.5 -6.5v-83q0 -8 -9 -8h-69q-9 0 -9 8z" />
    <glyph glyph-name="multiply" unicode="&#xd7;" horiz-adv-x="480" 
d="M85.5 104q-3.5 0 -5.5 3l-38 38q-6 7 0 13l147 147l-146 147q-3 2 -3 5.5t3 6.5l37 38q7 5 13 0l147 -146l148 147q2 3 5.5 3t6.5 -3l38 -38q5 -7 0 -13l-148 -147l147 -147q2 -2 2 -6t-2 -6l-38 -37q-6 -6 -13 -1l-147 147l-147 -148q-3 -3 -6.5 -3z" />
    <glyph glyph-name="Oslash" unicode="&#xd8;" horiz-adv-x="712" 
d="M672 345q0 -108 -38.5 -188t-109.5 -123.5t-168 -43.5q-68 0 -124.5 22.5t-97.5 64.5l-44 -44q-2 -3 -6 -3t-6 3l-34 34q-6 7 0 13l49 49q-53 89 -53 216q0 108 38.5 188t109.5 123.5t168 43.5q68 0 124.5 -22t97.5 -64l44 43q5 6 12 1l34 -34q7 -6 0 -13l-49 -49
q53 -90 53 -217zM164 200l349 348q-58 66 -157 66q-101 0 -160 -71t-59 -198q0 -85 27 -145zM516.5 147.5q59.5 71.5 59.5 197.5q0 84 -28 146l-348 -348q58 -67 156 -67q101 0 160.5 71.5z" />
    <glyph glyph-name="Ugrave" unicode="&#xd9;" horiz-adv-x="663" 
d="M147 57.5q-65 67.5 -65 188.5v435q0 9 8 9h78q9 0 9 -9v-439q0 -77 41 -121t113 -44t113.5 44t41.5 121v439q0 9 8 9h78q9 0 9 -9v-430q0 -123 -65.5 -192t-184.5 -69t-184 67.5zM288 754l-124 103q-3 3 -3 6q0 5 7 5h88q6 0 11 -5l93 -103q3 -3 3 -5q0 -5 -7 -5h-58
q-6 0 -10 4z" />
    <glyph glyph-name="Uacute" unicode="&#xda;" horiz-adv-x="663" 
d="M147 57.5q-65 67.5 -65 188.5v435q0 9 8 9h78q9 0 9 -9v-439q0 -77 41 -121t113 -44t113.5 44t41.5 121v439q0 9 8 9h78q9 0 9 -9v-430q0 -123 -65.5 -192t-184.5 -69t-184 67.5zM304.5 753.5q-1.5 3.5 2.5 7.5l93 102q4 5 11 5h87q6 0 7 -3.5t-3 -7.5l-131 -103
q-5 -4 -11 -4h-48q-6 0 -7.5 3.5z" />
    <glyph glyph-name="Ucircumflex" unicode="&#xdb;" horiz-adv-x="663" 
d="M147 57.5q-65 67.5 -65 188.5v435q0 9 8 9h78q9 0 9 -9v-439q0 -77 41 -121t113 -44t113.5 44t41.5 121v439q0 9 8 9h78q9 0 9 -9v-430q0 -123 -65.5 -192t-184.5 -69t-184 67.5zM198 740q-1 3 3 8l102 108q3 5 10 5h36q6 0 11 -5l102 -108q3 -4 3 -7q0 -4 -7 -4h-54
q-6 0 -11 5l-56 62q-5 7 -12 0l-55 -62q-3 -5 -10 -5h-55q-6 0 -7 3z" />
    <glyph glyph-name="Udieresis" unicode="&#xdc;" horiz-adv-x="663" 
d="M147 57.5q-65 67.5 -65 188.5v435q0 9 8 9h78q9 0 9 -9v-439q0 -77 41 -121t113 -44t113.5 44t41.5 121v439q0 9 8 9h78q9 0 9 -9v-430q0 -123 -65.5 -192t-184.5 -69t-184 67.5zM206 776v83q0 4 2.5 6.5t6.5 2.5h69q8 0 8 -9v-83q0 -8 -8 -8h-69q-9 0 -9 8zM370 776v83
q0 4 2.5 6.5t6.5 2.5h69q4 0 6.5 -2.5t2.5 -6.5v-83q0 -8 -9 -8h-69q-9 0 -9 8z" />
    <glyph glyph-name="Yacute" unicode="&#xdd;" horiz-adv-x="660" 
d="M282 9v261l-272 409l-2 5q0 6 8 6h90q8 0 11 -5l213 -329l213 329q4 5 11 5h91q5 0 6.5 -3t-0.5 -8l-274 -409v-261q0 -9 -9 -9h-78q-8 0 -8 9zM303.5 753.5q-1.5 3.5 2.5 7.5l93 102q4 5 11 5h87q6 0 7 -3.5t-3 -7.5l-131 -103q-5 -4 -11 -4h-48q-6 0 -7.5 3.5z" />
    <glyph glyph-name="Thorn" unicode="&#xde;" horiz-adv-x="588" 
d="M91 690h98v-93h150q102 0 162.5 -52t60.5 -145t-60 -144t-163 -51h-150v-205h-98v690zM326 289q68 0 103 28t35 82t-35.5 83.5t-102.5 29.5h-137v-223h137z" />
    <glyph glyph-name="germandbls" unicode="&#xdf;" horiz-adv-x="557" 
d="M263 4q-7 4 -7 11v74q0 5 3 7t7 0q39 -19 80 -19q34 0 55.5 20.5t21.5 53.5q0 31 -16 52t-48 46q-37 29 -56 55t-19 67q0 39 14.5 59.5t42.5 39.5q22 15 33 29.5t11 38.5q0 37 -27 59.5t-74 22.5q-55 0 -85.5 -30.5t-30.5 -80.5v-500q0 -9 -8 -9h-76q-4 0 -6.5 2.5
t-2.5 6.5v501q0 59 26.5 102t72 65.5t101.5 22.5q55 0 102.5 -20t75.5 -56.5t28 -83.5q0 -38 -16 -59.5t-47 -44.5q-23 -16 -34 -29.5t-11 -33.5q0 -22 14.5 -39t44.5 -38q28 -21 46 -38.5t30.5 -43.5t12.5 -62q0 -47 -22.5 -83.5t-62 -57t-88.5 -20.5q-33 0 -85 13z" />
    <glyph glyph-name="agrave" unicode="&#xe0;" horiz-adv-x="523" 
d="M92.5 29q-45.5 40 -45.5 108q0 50 26.5 87.5t72.5 56.5q22 9 42.5 12.5t59.5 8.5q42 4 72.5 10.5t60.5 23.5q10 6 10 17q-1 53 -31 78.5t-91 25.5q-59 0 -97 -21.5t-42 -69.5q0 -10 -9 -10h-57q-4 0 -6.5 3t-2.5 7q4 77 64 116.5t144 39.5q90 0 146 -44.5t56 -129.5v-339
q0 -9 -9 -9h-55q-10 0 -10 9v63q-69 -83 -177 -83q-76 0 -121.5 40zM318 79q40 23 67 65q6 6 6 18v111q-28 -15 -58 -22t-67 -12q-33 -5 -51.5 -9t-34.5 -13q-49 -25 -49 -84q0 -38 27.5 -58t73.5 -20q46 1 86 24zM224 576l-124 103q-3 3 -3 6q0 5 7 5h88q6 0 11 -5l93 -103
q3 -3 3 -5q0 -5 -7 -5h-58q-6 0 -10 4z" />
    <glyph glyph-name="aacute" unicode="&#xe1;" horiz-adv-x="523" 
d="M92.5 29q-45.5 40 -45.5 108q0 50 26.5 87.5t72.5 56.5q22 9 42.5 12.5t59.5 8.5q42 4 72.5 10.5t60.5 23.5q10 6 10 17q-1 53 -31 78.5t-91 25.5q-59 0 -97 -21.5t-42 -69.5q0 -10 -9 -10h-57q-4 0 -6.5 3t-2.5 7q4 77 64 116.5t144 39.5q90 0 146 -44.5t56 -129.5v-339
q0 -9 -9 -9h-55q-10 0 -10 9v63q-69 -83 -177 -83q-76 0 -121.5 40zM318 79q40 23 67 65q6 6 6 18v111q-28 -15 -58 -22t-67 -12q-33 -5 -51.5 -9t-34.5 -13q-49 -25 -49 -84q0 -38 27.5 -58t73.5 -20q46 1 86 24zM240.5 575.5q-1.5 3.5 2.5 7.5l93 102q4 5 11 5h87
q6 0 7 -3.5t-3 -7.5l-131 -103q-5 -4 -11 -4h-48q-6 0 -7.5 3.5z" />
    <glyph glyph-name="acircumflex" unicode="&#xe2;" horiz-adv-x="523" 
d="M92.5 29q-45.5 40 -45.5 108q0 50 26.5 87.5t72.5 56.5q22 9 42.5 12.5t59.5 8.5q42 4 72.5 10.5t60.5 23.5q10 6 10 17q-1 53 -31 78.5t-91 25.5q-59 0 -97 -21.5t-42 -69.5q0 -10 -9 -10h-57q-4 0 -6.5 3t-2.5 7q4 77 64 116.5t144 39.5q90 0 146 -44.5t56 -129.5v-339
q0 -9 -9 -9h-55q-10 0 -10 9v63q-69 -83 -177 -83q-76 0 -121.5 40zM318 79q40 23 67 65q6 6 6 18v111q-28 -15 -58 -22t-67 -12q-33 -5 -51.5 -9t-34.5 -13q-49 -25 -49 -84q0 -38 27.5 -58t73.5 -20q46 1 86 24zM134 562q-1 3 3 8l102 108q3 5 10 5h36q6 0 11 -5l102 -108
q3 -4 3 -7q0 -4 -7 -4h-54q-6 0 -11 5l-56 62q-5 7 -12 0l-55 -62q-3 -5 -10 -5h-55q-6 0 -7 3z" />
    <glyph glyph-name="atilde" unicode="&#xe3;" horiz-adv-x="523" 
d="M92.5 29q-45.5 40 -45.5 108q0 50 26.5 87.5t72.5 56.5q22 9 42.5 12.5t59.5 8.5q42 4 72.5 10.5t60.5 23.5q10 6 10 17q-1 53 -31 78.5t-91 25.5q-59 0 -97 -21.5t-42 -69.5q0 -10 -9 -10h-57q-4 0 -6.5 3t-2.5 7q4 77 64 116.5t144 39.5q90 0 146 -44.5t56 -129.5v-339
q0 -9 -9 -9h-55q-10 0 -10 9v63q-69 -83 -177 -83q-76 0 -121.5 40zM318 79q40 23 67 65q6 6 6 18v111q-28 -15 -58 -22t-67 -12q-33 -5 -51.5 -9t-34.5 -13q-49 -25 -49 -84q0 -38 27.5 -58t73.5 -20q46 1 86 24zM93 582q2 52 25.5 80t68.5 28q31 0 50.5 -10.5t43.5 -31.5
q20 -16 31.5 -22.5t26.5 -6.5q43 0 46 62q0 9 9 9h40q4 0 6.5 -2.5t2.5 -6.5q-2 -57 -28.5 -86t-70.5 -29q-29 0 -48.5 10t-43.5 30q-18 15 -31 22.5t-28 7.5q-20 0 -31.5 -14.5t-13.5 -39.5q0 -9 -9 -9h-38q-8 0 -8 9z" />
    <glyph glyph-name="adieresis" unicode="&#xe4;" horiz-adv-x="523" 
d="M92.5 29q-45.5 40 -45.5 108q0 50 26.5 87.5t72.5 56.5q22 9 42.5 12.5t59.5 8.5q42 4 72.5 10.5t60.5 23.5q10 6 10 17q-1 53 -31 78.5t-91 25.5q-59 0 -97 -21.5t-42 -69.5q0 -10 -9 -10h-57q-4 0 -6.5 3t-2.5 7q4 77 64 116.5t144 39.5q90 0 146 -44.5t56 -129.5v-339
q0 -9 -9 -9h-55q-10 0 -10 9v63q-69 -83 -177 -83q-76 0 -121.5 40zM318 79q40 23 67 65q6 6 6 18v111q-28 -15 -58 -22t-67 -12q-33 -5 -51.5 -9t-34.5 -13q-49 -25 -49 -84q0 -38 27.5 -58t73.5 -20q46 1 86 24zM142 598v83q0 4 2.5 6.5t6.5 2.5h69q8 0 8 -9v-83
q0 -8 -8 -8h-69q-9 0 -9 8zM306 598v83q0 4 2.5 6.5t6.5 2.5h69q4 0 6.5 -2.5t2.5 -6.5v-83q0 -8 -9 -8h-69q-9 0 -9 8z" />
    <glyph glyph-name="aring" unicode="&#xe5;" horiz-adv-x="523" 
d="M92.5 29q-45.5 40 -45.5 108q0 50 26.5 87.5t72.5 56.5q22 9 42.5 12.5t59.5 8.5q42 4 72.5 10.5t60.5 23.5q10 6 10 17q-1 53 -31 78.5t-91 25.5q-59 0 -97 -21.5t-42 -69.5q0 -10 -9 -10h-57q-4 0 -6.5 3t-2.5 7q4 77 64 116.5t144 39.5q90 0 146 -44.5t56 -129.5v-339
q0 -9 -9 -9h-55q-10 0 -10 9v63q-69 -83 -177 -83q-76 0 -121.5 40zM318 79q40 23 67 65q6 6 6 18v111q-28 -15 -58 -22t-67 -12q-33 -5 -51.5 -9t-34.5 -13q-49 -25 -49 -84q0 -38 27.5 -58t73.5 -20q46 1 86 24zM196.5 581.5q-28.5 29.5 -28.5 71.5q0 41 28.5 70t70.5 29
q41 0 70.5 -28.5t29.5 -70.5t-29.5 -71.5t-70.5 -29.5q-42 0 -70.5 29.5zM304.5 615q15.5 15 15.5 38q0 22 -15 37t-38 15t-37.5 -14.5t-14.5 -37.5q0 -24 15 -38.5t37 -14.5t37.5 15z" />
    <glyph glyph-name="ae" unicode="&#xe6;" horiz-adv-x="887" 
d="M748.5 485q49.5 -37 71.5 -95.5t22 -126.5q0 -19 -1 -26q-1 -9 -11 -9h-357q5 -76 43 -119t106 -43q54 0 87 25.5t42 72.5q3 9 11 9h59q11 0 9 -13q-14 -83 -70 -126.5t-134 -43.5q-69 0 -119.5 28.5t-81.5 78.5q-100 -108 -216 -108q-72 0 -118 40t-46 107q0 93 106 143
q83 38 211 35q11 1 18 7.5t6 16.5q-2 113 -116 113q-54 0 -91 -20.5t-41 -69.5q-1 -9 -10 -9h-67q-8 0 -8 9q4 80 65.5 120.5t144.5 40.5q59 0 106.5 -19.5t73.5 -58.5q63 78 177 78q79 0 128.5 -37zM513.5 404.5q-36.5 -40.5 -40.5 -107.5h282q-2 69 -36 108.5t-101 39.5
q-68 0 -104.5 -40.5zM398 162q-11 39 -13 85q-23 3 -46 3q-82 0 -136 -29q-28 -14 -44.5 -34.5t-16.5 -45.5q0 -37 27 -58t69 -21q85 2 160 100z" />
    <glyph glyph-name="ccedilla" unicode="&#xe7;" horiz-adv-x="549" 
d="M512.5 190q2.5 -3 1.5 -7q-8 -81 -60.5 -131.5t-132.5 -60.5l-34 -52q46 -13 69 -32.5t23 -52.5q0 -43 -29.5 -70.5t-68.5 -27.5q-30 0 -54 15.5t-37 39.5q-1 1 -1 4q0 6 5 8l32 16q2 1 5 1q5 0 7 -5q5 -12 15.5 -19.5t24.5 -7.5q18 0 31 13t13 32q0 30 -42 43l-53 17
q-8 3 -4 12l36 65q-99 8 -159 77t-60 187q0 86 31 146t86.5 91t127.5 31q94 0 157.5 -52t72.5 -145v-2q0 -4 -2.5 -6t-5.5 -2h-71q-8 0 -10 9q-6 57 -43.5 87.5t-96.5 30.5q-72 0 -113.5 -47t-41.5 -141q0 -92 41.5 -138.5t113.5 -46.5q58 0 95.5 29.5t44.5 85.5q2 9 10 9
h69q5 0 7.5 -3z" />
    <glyph glyph-name="egrave" unicode="&#xe8;" horiz-adv-x="534" 
d="M443 446.5q53 -75.5 53 -183.5v-26q-1 -9 -11 -9h-357q5 -76 43 -119t106 -43q54 0 87 25.5t42 72.5q2 9 10 9h60q11 0 9 -13q-14 -83 -70 -126.5t-134 -43.5t-132 35.5t-81.5 96t-27.5 133.5t25.5 133.5t78 97t131.5 36.5q115 0 168 -75.5zM168.5 404.5
q-36.5 -40.5 -41.5 -107.5h283q-2 69 -36 108.5t-101 39.5q-68 0 -104.5 -40.5zM229 576l-124 103q-3 3 -3 6q0 5 7 5h88q6 0 11 -5l93 -103q3 -3 3 -5q0 -5 -7 -5h-58q-6 0 -10 4z" />
    <glyph glyph-name="eacute" unicode="&#xe9;" horiz-adv-x="534" 
d="M443 446.5q53 -75.5 53 -183.5v-26q-1 -9 -11 -9h-357q5 -76 43 -119t106 -43q54 0 87 25.5t42 72.5q2 9 10 9h60q11 0 9 -13q-14 -83 -70 -126.5t-134 -43.5t-132 35.5t-81.5 96t-27.5 133.5t25.5 133.5t78 97t131.5 36.5q115 0 168 -75.5zM168.5 404.5
q-36.5 -40.5 -41.5 -107.5h283q-2 69 -36 108.5t-101 39.5q-68 0 -104.5 -40.5zM245.5 575.5q-1.5 3.5 2.5 7.5l93 102q4 5 11 5h87q6 0 7 -3.5t-3 -7.5l-131 -103q-5 -4 -11 -4h-48q-6 0 -7.5 3.5z" />
    <glyph glyph-name="ecircumflex" unicode="&#xea;" horiz-adv-x="534" 
d="M443 446.5q53 -75.5 53 -183.5v-26q-1 -9 -11 -9h-357q5 -76 43 -119t106 -43q54 0 87 25.5t42 72.5q2 9 10 9h60q11 0 9 -13q-14 -83 -70 -126.5t-134 -43.5t-132 35.5t-81.5 96t-27.5 133.5t25.5 133.5t78 97t131.5 36.5q115 0 168 -75.5zM168.5 404.5
q-36.5 -40.5 -41.5 -107.5h283q-2 69 -36 108.5t-101 39.5q-68 0 -104.5 -40.5zM139 562q-1 3 3 8l102 108q3 5 10 5h36q6 0 11 -5l102 -108q3 -4 3 -7q0 -4 -7 -4h-54q-6 0 -11 5l-56 62q-5 7 -12 0l-55 -62q-3 -5 -10 -5h-55q-6 0 -7 3z" />
    <glyph glyph-name="edieresis" unicode="&#xeb;" horiz-adv-x="534" 
d="M443 446.5q53 -75.5 53 -183.5v-26q-1 -9 -11 -9h-357q5 -76 43 -119t106 -43q54 0 87 25.5t42 72.5q2 9 10 9h60q11 0 9 -13q-14 -83 -70 -126.5t-134 -43.5t-132 35.5t-81.5 96t-27.5 133.5t25.5 133.5t78 97t131.5 36.5q115 0 168 -75.5zM168.5 404.5
q-36.5 -40.5 -41.5 -107.5h283q-2 69 -36 108.5t-101 39.5q-68 0 -104.5 -40.5zM147 598v83q0 4 2.5 6.5t6.5 2.5h69q8 0 8 -9v-83q0 -8 -8 -8h-69q-9 0 -9 8zM311 598v83q0 4 2.5 6.5t6.5 2.5h69q4 0 6.5 -2.5t2.5 -6.5v-83q0 -8 -9 -8h-69q-9 0 -9 8z" />
    <glyph glyph-name="igrave" unicode="&#xec;" horiz-adv-x="250" 
d="M80 512h90v-512h-90v512zM81 576l-124 103q-3 3 -3 6q0 5 7 5h88q6 0 11 -5l93 -103q3 -3 3 -5q0 -5 -7 -5h-58q-6 0 -10 4z" />
    <glyph glyph-name="iacute" unicode="&#xed;" horiz-adv-x="250" 
d="M80 512h90v-512h-90v512zM97.5 575.5q-1.5 3.5 2.5 7.5l93 102q4 5 11 5h87q6 0 7 -3.5t-3 -7.5l-131 -103q-5 -4 -11 -4h-48q-6 0 -7.5 3.5z" />
    <glyph glyph-name="icircumflex" unicode="&#xee;" horiz-adv-x="250" 
d="M80 512h90v-512h-90v512zM-9 562q-1 3 3 8l102 108q3 5 10 5h36q6 0 11 -5l102 -108q3 -4 3 -7q0 -4 -7 -4h-54q-6 0 -11 5l-56 62q-5 7 -12 0l-55 -62q-3 -5 -10 -5h-55q-6 0 -7 3z" />
    <glyph glyph-name="idieresis" unicode="&#xef;" horiz-adv-x="250" 
d="M80 512h90v-512h-90v512zM-1 598v83q0 4 2.5 6.5t6.5 2.5h69q8 0 8 -9v-83q0 -8 -8 -8h-69q-9 0 -9 8zM163 598v83q0 4 2.5 6.5t6.5 2.5h69q4 0 6.5 -2.5t2.5 -6.5v-83q0 -8 -9 -8h-69q-9 0 -9 8z" />
    <glyph glyph-name="eth" unicode="&#xf0;" horiz-adv-x="554" 
d="M465.5 511.5q48.5 -101.5 48.5 -259.5q0 -70 -28.5 -129.5t-82 -95t-126.5 -35.5q-74 0 -128 35.5t-82.5 95t-28.5 129.5t28 129.5t81.5 95t124.5 35.5q41 0 77.5 -16t52.5 -40q-16 57 -51.5 96.5t-90.5 71.5l-43 -60q-5 -7 -12 -2l-24 18q-7 6 -2 12l40 54l-72 34
q-9 3 -4 11l28 41q3 8 11 5q39 -13 80 -34l40 53q5 6 12 2l21 -17q9 -4 3 -12l-35 -48q114 -68 162.5 -169.5zM383.5 124q36.5 51 36.5 128q0 78 -36.5 128.5t-106.5 50.5q-71 0 -107.5 -51t-36.5 -128t36.5 -128t107.5 -51q70 0 106.5 51z" />
    <glyph glyph-name="ntilde" unicode="&#xf1;" horiz-adv-x="567" 
d="M80.5 2.5q-2.5 2.5 -2.5 6.5v494q0 4 2.5 6.5t6.5 2.5h74q4 0 6.5 -2.5t2.5 -6.5v-59q24 37 64.5 57.5t90.5 20.5q79 0 125.5 -51t46.5 -137v-325q0 -4 -2.5 -6.5t-6.5 -2.5h-73q-9 0 -9 9v308q0 125 -101 125q-60 0 -97.5 -39.5t-37.5 -105.5v-288q0 -4 -2.5 -6.5
t-6.5 -2.5h-74q-4 0 -6.5 2.5zM103 584q2 52 25.5 80t68.5 28q31 0 50.5 -10.5t43.5 -31.5q20 -16 31.5 -22.5t26.5 -6.5q43 0 46 62q0 9 9 9h40q4 0 6.5 -2.5t2.5 -6.5q-2 -57 -28.5 -86t-70.5 -29q-29 0 -48.5 10t-43.5 30q-18 15 -31 22.5t-28 7.5q-20 0 -31.5 -14.5
t-13.5 -39.5q0 -9 -9 -9h-38q-8 0 -8 9z" />
    <glyph glyph-name="ograve" unicode="&#xf2;" horiz-adv-x="570" 
d="M157.5 19.5q-55.5 30.5 -86.5 90.5t-31 144q0 86 31 146t86.5 91t127.5 31q71 0 126.5 -31t87 -91.5t31.5 -145.5q0 -84 -31.5 -143.5t-87 -90.5t-126.5 -31q-72 0 -127.5 30.5zM399.5 115.5q41.5 46.5 41.5 138.5q0 94 -41.5 141t-113.5 47t-113.5 -47t-41.5 -141
q0 -92 41.5 -138.5t113.5 -46.5t113.5 46.5zM241 576l-124 103q-3 3 -3 6q0 5 7 5h88q6 0 11 -5l93 -103q3 -3 3 -5q0 -5 -7 -5h-58q-6 0 -10 4z" />
    <glyph glyph-name="oacute" unicode="&#xf3;" horiz-adv-x="570" 
d="M157.5 19.5q-55.5 30.5 -86.5 90.5t-31 144q0 86 31 146t86.5 91t127.5 31q71 0 126.5 -31t87 -91.5t31.5 -145.5q0 -84 -31.5 -143.5t-87 -90.5t-126.5 -31q-72 0 -127.5 30.5zM399.5 115.5q41.5 46.5 41.5 138.5q0 94 -41.5 141t-113.5 47t-113.5 -47t-41.5 -141
q0 -92 41.5 -138.5t113.5 -46.5t113.5 46.5zM257.5 575.5q-1.5 3.5 2.5 7.5l93 102q4 5 11 5h87q6 0 7 -3.5t-3 -7.5l-131 -103q-5 -4 -11 -4h-48q-6 0 -7.5 3.5z" />
    <glyph glyph-name="ocircumflex" unicode="&#xf4;" horiz-adv-x="570" 
d="M157.5 19.5q-55.5 30.5 -86.5 90.5t-31 144q0 86 31 146t86.5 91t127.5 31q71 0 126.5 -31t87 -91.5t31.5 -145.5q0 -84 -31.5 -143.5t-87 -90.5t-126.5 -31q-72 0 -127.5 30.5zM399.5 115.5q41.5 46.5 41.5 138.5q0 94 -41.5 141t-113.5 47t-113.5 -47t-41.5 -141
q0 -92 41.5 -138.5t113.5 -46.5t113.5 46.5zM151 562q-1 3 3 8l102 108q3 5 10 5h36q6 0 11 -5l102 -108q3 -4 3 -7q0 -4 -7 -4h-54q-6 0 -11 5l-56 62q-5 7 -12 0l-55 -62q-3 -5 -10 -5h-55q-6 0 -7 3z" />
    <glyph glyph-name="otilde" unicode="&#xf5;" horiz-adv-x="570" 
d="M157.5 19.5q-55.5 30.5 -86.5 90.5t-31 144q0 86 31 146t86.5 91t127.5 31q71 0 126.5 -31t87 -91.5t31.5 -145.5q0 -84 -31.5 -143.5t-87 -90.5t-126.5 -31q-72 0 -127.5 30.5zM399.5 115.5q41.5 46.5 41.5 138.5q0 94 -41.5 141t-113.5 47t-113.5 -47t-41.5 -141
q0 -92 41.5 -138.5t113.5 -46.5t113.5 46.5zM110 582q2 52 25.5 80t68.5 28q31 0 50.5 -10.5t43.5 -31.5q20 -16 31.5 -22.5t26.5 -6.5q43 0 46 62q0 9 9 9h40q4 0 6.5 -2.5t2.5 -6.5q-2 -57 -28.5 -86t-70.5 -29q-29 0 -48.5 10t-43.5 30q-18 15 -31 22.5t-28 7.5
q-20 0 -31.5 -14.5t-13.5 -39.5q0 -9 -9 -9h-38q-8 0 -8 9z" />
    <glyph glyph-name="odieresis" unicode="&#xf6;" horiz-adv-x="570" 
d="M157.5 19.5q-55.5 30.5 -86.5 90.5t-31 144q0 86 31 146t86.5 91t127.5 31q71 0 126.5 -31t87 -91.5t31.5 -145.5q0 -84 -31.5 -143.5t-87 -90.5t-126.5 -31q-72 0 -127.5 30.5zM399.5 115.5q41.5 46.5 41.5 138.5q0 94 -41.5 141t-113.5 47t-113.5 -47t-41.5 -141
q0 -92 41.5 -138.5t113.5 -46.5t113.5 46.5zM159 598v83q0 4 2.5 6.5t6.5 2.5h69q8 0 8 -9v-83q0 -8 -8 -8h-69q-9 0 -9 8zM323 598v83q0 4 2.5 6.5t6.5 2.5h69q4 0 6.5 -2.5t2.5 -6.5v-83q0 -8 -9 -8h-69q-9 0 -9 8z" />
    <glyph glyph-name="divide" unicode="&#xf7;" horiz-adv-x="670" 
d="M280 419v90q0 4 2.5 6.5t6.5 2.5h91q9 0 9 -9v-90q0 -9 -9 -9h-91q-9 0 -9 9zM73 235v51q0 9 9 9h506q9 0 9 -9v-51q0 -8 -9 -8h-506q-9 0 -9 8zM282.5 -1.5q-2.5 2.5 -2.5 6.5v90q0 4 2.5 6.5t6.5 2.5h91q9 0 9 -9v-90q0 -9 -9 -9h-91q-4 0 -6.5 2.5z" />
    <glyph glyph-name="oslash" unicode="&#xf8;" horiz-adv-x="570" 
d="M530 254q0 -84 -31.5 -143.5t-87 -90.5t-126.5 -31q-105 0 -171 64l-17 -17q-4 -4 -9 0l-24 24q-3 5 0 9l20 20q-44 66 -44 165q0 86 31 146t86.5 91t127.5 31q104 0 169 -63l17 17q5 3 9 0l24 -24q2 -2 2 -4.5t-2 -4.5l-19 -19q45 -71 45 -170zM149 154l246 246
q-39 42 -109 42q-72 0 -113.5 -47t-41.5 -141q0 -59 18 -100zM399.5 115.5q41.5 46.5 41.5 138.5q0 63 -19 107l-248 -248q41 -44 112 -44q72 0 113.5 46.5z" />
    <glyph glyph-name="ugrave" unicode="&#xf9;" horiz-adv-x="567" 
d="M117 42.5q-47 51.5 -47 136.5v324q0 4 2.5 6.5t6.5 2.5h73q9 0 9 -9v-308q0 -121 103 -121q60 0 96.5 39t36.5 101v289q0 4 2.5 6.5t6.5 2.5h74q8 0 8 -9v-494q0 -9 -8 -9h-74q-4 0 -6.5 2.5t-2.5 6.5v60q-56 -78 -152 -78q-81 0 -128 51.5zM236 576l-124 103q-3 3 -3 6
q0 5 7 5h88q6 0 11 -5l93 -103q3 -3 3 -5q0 -5 -7 -5h-58q-6 0 -10 4z" />
    <glyph glyph-name="uacute" unicode="&#xfa;" horiz-adv-x="567" 
d="M117 42.5q-47 51.5 -47 136.5v324q0 4 2.5 6.5t6.5 2.5h73q9 0 9 -9v-308q0 -121 103 -121q60 0 96.5 39t36.5 101v289q0 4 2.5 6.5t6.5 2.5h74q8 0 8 -9v-494q0 -9 -8 -9h-74q-4 0 -6.5 2.5t-2.5 6.5v60q-56 -78 -152 -78q-81 0 -128 51.5zM251.5 575.5
q-1.5 3.5 2.5 7.5l93 102q4 5 11 5h87q6 0 7 -3.5t-3 -7.5l-131 -103q-5 -4 -11 -4h-48q-6 0 -7.5 3.5z" />
    <glyph glyph-name="ucircumflex" unicode="&#xfb;" horiz-adv-x="567" 
d="M117 42.5q-47 51.5 -47 136.5v324q0 4 2.5 6.5t6.5 2.5h73q9 0 9 -9v-308q0 -121 103 -121q60 0 96.5 39t36.5 101v289q0 4 2.5 6.5t6.5 2.5h74q8 0 8 -9v-494q0 -9 -8 -9h-74q-4 0 -6.5 2.5t-2.5 6.5v60q-56 -78 -152 -78q-81 0 -128 51.5zM145 562q-1 3 3 8l102 108
q3 5 10 5h36q6 0 11 -5l102 -108q3 -4 3 -7q0 -4 -7 -4h-54q-6 0 -11 5l-56 62q-5 7 -12 0l-55 -62q-3 -5 -10 -5h-55q-6 0 -7 3z" />
    <glyph glyph-name="udieresis" unicode="&#xfc;" horiz-adv-x="567" 
d="M117 42.5q-47 51.5 -47 136.5v324q0 4 2.5 6.5t6.5 2.5h73q9 0 9 -9v-308q0 -121 103 -121q60 0 96.5 39t36.5 101v289q0 4 2.5 6.5t6.5 2.5h74q8 0 8 -9v-494q0 -9 -8 -9h-74q-4 0 -6.5 2.5t-2.5 6.5v60q-56 -78 -152 -78q-81 0 -128 51.5zM153 598v83q0 4 2.5 6.5
t6.5 2.5h69q8 0 8 -9v-83q0 -8 -8 -8h-69q-9 0 -9 8zM317 598v83q0 4 2.5 6.5t6.5 2.5h69q4 0 6.5 -2.5t2.5 -6.5v-83q0 -8 -9 -8h-69q-9 0 -9 8z" />
    <glyph glyph-name="yacute" unicode="&#xfd;" horiz-adv-x="492" 
d="M33 -169v59q0 9 9 9q53 0 85 14t47.5 34t31.5 53l-191 501v3q0 8 8 8h81q7 0 10 -7l135 -394l134 394q4 7 10 7h82q4 0 6.5 -3t0.5 -8l-199 -523q-24 -64 -59.5 -98t-78.5 -45.5t-103 -12.5q-9 0 -9 9zM219.5 575.5q-1.5 3.5 2.5 7.5l93 102q4 5 11 5h87q6 0 7 -3.5
t-3 -7.5l-131 -103q-5 -4 -11 -4h-48q-6 0 -7.5 3.5z" />
    <glyph glyph-name="thorn" unicode="&#xfe;" horiz-adv-x="586" 
d="M80.5 -175.5q-2.5 2.5 -2.5 6.5v850q0 4 2.5 6.5t6.5 2.5h75q8 0 8 -9v-253h5q31 35 69 52.5t91 17.5q65 0 113 -33t73 -90.5t25 -130.5t-25 -130.5t-73 -90.5t-113 -33q-54 0 -93 17t-68 52h-4v-228q0 -9 -9 -9h-74q-4 0 -6.5 2.5zM420 117q38 50 38 129t-38 129
t-111 50q-71 0 -107.5 -50.5t-36.5 -128.5t36.5 -128.5t107.5 -50.5q73 0 111 50z" />
    <glyph glyph-name="ydieresis" unicode="&#xff;" horiz-adv-x="492" 
d="M33 -169v59q0 9 9 9q53 0 85 14t47.5 34t31.5 53l-191 501v3q0 8 8 8h81q7 0 10 -7l135 -394l134 394q4 7 10 7h82q4 0 6.5 -3t0.5 -8l-199 -523q-24 -64 -59.5 -98t-78.5 -45.5t-103 -12.5q-9 0 -9 9zM121 598v83q0 4 2.5 6.5t6.5 2.5h69q8 0 8 -9v-83q0 -8 -8 -8h-69
q-9 0 -9 8zM285 598v83q0 4 2.5 6.5t6.5 2.5h69q4 0 6.5 -2.5t2.5 -6.5v-83q0 -8 -9 -8h-69q-9 0 -9 8z" />
    <glyph glyph-name="dcaron" unicode="&#x10f;" horiz-adv-x="628" 
d="M96.5 62.5q-56.5 73.5 -56.5 193.5q0 119 56.5 192.5t165.5 73.5q113 0 172 -83v242q0 4 2.5 6.5t6.5 2.5h74q4 0 6.5 -2.5t2.5 -6.5v-672q0 -4 -2.5 -6.5t-6.5 -2.5h-73q-4 0 -6.5 2.5t-2.5 6.5v63q-60 -83 -172 -83q-110 0 -166.5 73.5zM589 467l36 122h-31q-8 0 -8 8
v86q0 7 8 7h89q8 0 8 -7v-89q0 -4 -2 -10l-53 -119q-1 -7 -9 -7h-31q-8 0 -7 9zM398.5 119q40.5 50 40.5 137q0 85 -40.5 135t-110.5 50q-78 0 -117 -48.5t-39 -136.5q0 -90 39 -138.5t117 -48.5q70 0 110.5 50z" />
    <glyph glyph-name="Dcroat" unicode="&#x110;" horiz-adv-x="658" 
d="M82.5 2.5q-2.5 2.5 -2.5 6.5v305h-48q-9 0 -9 8v52q0 8 9 8h48v299q0 4 2.5 6.5t6.5 2.5h175q171 0 262.5 -90t91.5 -260q0 -163 -92.5 -251.5t-262.5 -88.5h-174q-4 0 -6.5 2.5zM251 85q125 0 199 64t74 196q0 261 -262 261h-89v-224h167q9 0 9 -8v-52q0 -8 -9 -8h-167
v-229h78z" />
    <glyph glyph-name="dotlessi" unicode="&#x131;" horiz-adv-x="250" 
d="M80 512h90v-512h-90v512z" />
    <glyph glyph-name="kgreenlandic" unicode="&#x138;" horiz-adv-x="522" 
d="M526 5q0 -5 -7 -5h-94q-7 0 -10 5l-183 242l-62 -61v-177q0 -4 -2.5 -6.5t-6.5 -2.5h-74q-4 0 -6.5 2.5t-2.5 6.5v494q0 4 2.5 6.5t6.5 2.5h74q4 0 6.5 -2.5t2.5 -6.5v-207l215 211q5 5 11 5h92q6 0 7 -3.5t-3 -7.5l-200 -195l232 -295q2 -2 2 -6z" />
    <glyph glyph-name="Lcaron" unicode="&#x13d;" horiz-adv-x="490" 
d="M91 9v672q0 9 9 9h77q9 0 9 -9v-597h286q9 0 9 -9v-66q0 -9 -9 -9h-372q-9 0 -9 9zM368 439l40 137h-35q-8 0 -8 9v96q0 9 8 9h101q8 0 8 -9v-100q0 -4 -2 -10l-59 -135q-3 -7 -10 -7h-35q-11 0 -8 10z" />
    <glyph glyph-name="lcaron" unicode="&#x13e;" horiz-adv-x="317" 
d="M80 9v672q0 9 8 9h74q4 0 6.5 -2.5t2.5 -6.5v-672q0 -4 -2.5 -6.5t-6.5 -2.5h-74q-8 0 -8 9zM241 439l40 137h-35q-8 0 -8 9v96q0 9 8 9h101q8 0 8 -9v-100q0 -4 -2 -10l-59 -135q-3 -7 -10 -7h-35q-11 0 -8 10z" />
    <glyph glyph-name="Lslash" unicode="&#x141;" horiz-adv-x="490" 
d="M481 75v-66q0 -9 -9 -9h-372q-9 0 -9 9v220l-74 -58q-4 -3 -6 -2t-2 6v68q0 5 4 8l78 62v368q0 9 9 9h77q9 0 9 -9v-292l102 81q4 3 6 1.5t2 -5.5v-71q0 -5 -4 -9l-106 -83v-219h286q9 0 9 -9z" />
    <glyph glyph-name="lslash" unicode="&#x142;" horiz-adv-x="251" 
d="M254 479v-59q0 -4 -3 -7l-80 -63v-341q0 -4 -2.5 -6.5t-6.5 -2.5h-74q-8 0 -8 9v269l-57 -44q-2 -3 -4 -2t-2 5v57q0 4 3 7l60 48v332q0 9 8 9h74q4 0 6.5 -2.5t2.5 -6.5v-260l77 62q6 5 6 -4z" />
    <glyph glyph-name="Eng" unicode="&#x14a;" horiz-adv-x="734" 
d="M635 0h8q0 -46 -7 -74.5t-35 -47.5t-87 -19h-52q-4 0 -6.5 2.5t-2.5 6.5v46q0 8 9 8h26q30 0 44 12t17 27.5t3 38.5h-26q-7 0 -11 6l-325 566h-4v-563q0 -9 -9 -9h-77q-9 0 -9 9v672q0 9 9 9h106q5 0 11 -6l326 -562h5v559q0 9 9 9h78q8 0 8 -9v-672q0 -9 -8 -9z" />
    <glyph glyph-name="eng" unicode="&#x14b;" horiz-adv-x="567" 
d="M303 -132v46q0 9 9 9h34q35 0 46 24t11 51v285q0 55 -23.5 92t-76.5 37q-37 0 -68.5 -19t-49.5 -51.5t-18 -70.5v-262q0 -4 -2.5 -6.5t-6.5 -2.5h-73q-9 0 -9 9v470q0 9 9 9h72q4 0 6.5 -2.5t2.5 -6.5v-71h6q25 44 65.5 66t89.5 22q85 0 126 -57t41 -143v-300
q0 -52 -25.5 -94.5t-117.5 -42.5h-39q-9 0 -9 9z" />
    <glyph glyph-name="OE" unicode="&#x152;" horiz-adv-x="1090" 
d="M695 606v-219h296q8 0 8 -9v-66q0 -9 -8 -9h-296v-219h336q8 0 8 -9v-66q0 -9 -8 -9h-420q-4 0 -6.5 2.5t-2.5 6.5v95q-42 -55 -104.5 -84.5t-141.5 -29.5q-97 0 -168 43.5t-109.5 123.5t-38.5 188t38.5 188t109.5 123.5t168 43.5q79 0 141.5 -29.5t104.5 -84.5v95
q0 4 2.5 6.5t6.5 2.5h420q8 0 8 -9v-66q0 -9 -8 -9h-336zM516.5 147.5q59.5 71.5 59.5 197.5q0 127 -59 198t-161 71q-101 0 -160 -71t-59 -198q0 -126 59 -197.5t160 -71.5t160.5 71.5z" />
    <glyph glyph-name="oe" unicode="&#x153;" horiz-adv-x="947" 
d="M848 446.5q53 -75.5 53 -183.5v-26q-1 -9 -11 -9h-357q5 -76 43 -119t106 -43q54 0 87 25.5t42 72.5q2 9 10 9h60q11 0 9 -13q-14 -83 -70 -126.5t-134 -43.5q-67 0 -117 27t-81 75q-32 -50 -84.5 -76.5t-118.5 -26.5q-72 0 -127.5 30.5t-86.5 90.5t-31 144q0 86 31 146
t86.5 91t127.5 31q65 0 117 -26t85 -76q29 48 77.5 75t115.5 27q115 0 168 -75.5zM573 404.5q-37 -40.5 -41 -107.5h283q-2 69 -36 108.5t-101 39.5q-68 0 -105 -40.5zM399.5 115.5q41.5 46.5 41.5 138.5q0 94 -41.5 141t-113.5 47t-113.5 -47t-41.5 -141q0 -92 41.5 -138.5
t113.5 -46.5t113.5 46.5z" />
    <glyph glyph-name="Scaron" unicode="&#x160;" horiz-adv-x="547" 
d="M163 14.5q-58 22.5 -97 74t-41 134.5q0 8 9 8h80q9 0 9 -8q4 -76 49.5 -111t115.5 -35q57 0 92.5 28t35.5 77q0 36 -22 61t-53 40.5t-88 37.5q-65 24 -105 45t-69 58.5t-29 95.5q0 83 59 131.5t156 48.5t160.5 -46.5t66.5 -142.5q0 -9 -8 -9h-79q-8 0 -8 9
q-2 56 -38 82.5t-95 26.5q-54 0 -86 -24.5t-32 -66.5q0 -31 20.5 -53.5t49.5 -37t83 -36.5q72 -29 112 -50t71 -60t31 -100q0 -60 -28.5 -105t-80 -70t-118.5 -25q-65 0 -123 22.5zM239 746l-105 111q-3 5 -3 7q0 4 7 4h55q7 0 10 -5l55 -60q6 -6 13 0l56 60q3 5 10 5h54
q5 0 7 -3t-2 -8l-106 -111q-5 -5 -11 -5h-29q-8 0 -11 5z" />
    <glyph glyph-name="scaron" unicode="&#x161;" horiz-adv-x="473" 
d="M103 30q-64 45 -68 134q0 4 2.5 6.5t6.5 2.5h67q9 0 9 -9q3 -53 35 -79q34 -24 92 -24q46 0 76 20t30 61q0 27 -17.5 43.5t-43 25t-74.5 19.5q-55 13 -90 26t-59 40.5t-24 73.5q0 73 51 112.5t136 39.5q81 0 132 -35q63 -42 66 -123q0 -9 -8 -9h-63q-9 0 -9 9
q-3 45 -34 67q-31 20 -83 20q-47 0 -75 -19.5t-28 -52.5q0 -23 18 -37t42 -21.5t82 -21.5q54 -13 88.5 -28t57.5 -44t23 -76q0 -75 -50 -118.5t-126 -43.5q-106 0 -162 41zM204 568l-105 111q-3 5 -3 7q0 4 7 4h55q7 0 10 -5l55 -60q6 -6 13 0l56 60q3 5 10 5h54q5 0 7 -3
t-2 -8l-106 -111q-5 -5 -11 -5h-29q-8 0 -11 5z" />
    <glyph glyph-name="tcaron" unicode="&#x165;" horiz-adv-x="327" 
d="M276 570l40 137h-35q-8 0 -8 9v96q0 9 8 9h101q8 0 8 -9v-100q0 -4 -2 -10l-59 -135q-3 -7 -10 -7h-35q-11 0 -8 10zM91 135v307h-67q-9 0 -9 9v52q0 4 2.5 6.5t6.5 2.5h67v129q0 4 2.5 6.5t6.5 2.5h73q4 0 6.5 -2.5t2.5 -6.5v-129h112q8 0 8 -9v-52q0 -9 -8 -9h-112
v-286q0 -46 15.5 -64.5t53.5 -18.5h43q8 0 8 -8v-56q0 -9 -8 -9h-73q-130 0 -130 135z" />
    <glyph glyph-name="Ydieresis" unicode="&#x178;" horiz-adv-x="660" 
d="M282 9v261l-272 409l-2 5q0 6 8 6h90q8 0 11 -5l213 -329l213 329q4 5 11 5h91q5 0 6.5 -3t-0.5 -8l-274 -409v-261q0 -9 -9 -9h-78q-8 0 -8 9zM205 776v83q0 4 2.5 6.5t6.5 2.5h69q8 0 8 -9v-83q0 -8 -8 -8h-69q-9 0 -9 8zM369 776v83q0 4 2.5 6.5t6.5 2.5h69
q4 0 6.5 -2.5t2.5 -6.5v-83q0 -8 -9 -8h-69q-9 0 -9 8z" />
    <glyph glyph-name="Zcaron" unicode="&#x17d;" horiz-adv-x="576" 
d="M555 611l-419 -527h414q4 0 6.5 -2.5t2.5 -6.5v-66q0 -4 -2.5 -6.5t-6.5 -2.5h-524q-4 0 -6.5 2.5t-2.5 6.5v56q0 6 4 11l419 530h-392q-4 0 -6.5 2.5t-2.5 6.5v66q0 4 2.5 6.5t6.5 2.5h502q4 0 6.5 -2.5t2.5 -6.5v-60q0 -6 -4 -10zM264 746l-105 111q-3 5 -3 7q0 4 7 4
h55q7 0 10 -5l55 -60q6 -6 13 0l56 60q3 5 10 5h54q5 0 7 -3t-2 -8l-106 -111q-5 -5 -11 -5h-29q-8 0 -11 5z" />
    <glyph glyph-name="zcaron" unicode="&#x17e;" horiz-adv-x="458" 
d="M430 435l-291 -358h283q9 0 9 -9v-59q0 -4 -2.5 -6.5t-6.5 -2.5h-387q-4 0 -6.5 2.5t-2.5 6.5v52q0 6 4 10l297 365h-283q-9 0 -9 9v58q0 4 2.5 6.5t6.5 2.5h381q4 0 6.5 -2.5t2.5 -6.5v-58q0 -6 -4 -10zM203 568l-105 111q-3 5 -3 7q0 4 7 4h55q7 0 10 -5l55 -60
q6 -6 13 0l56 60q3 5 10 5h54q5 0 7 -3t-2 -8l-106 -111q-5 -5 -11 -5h-29q-8 0 -11 5z" />
    <glyph glyph-name="florin" unicode="&#x192;" horiz-adv-x="474" 
d="M22.5 -220.5q-2.5 2.5 -2.5 6.5v61q0 8 9 8q84 2 120 36t36 113v407h-78q-9 0 -9 8v60q0 4 2.5 6.5t6.5 2.5h78v72q0 67 36 107t104 40q59 0 97.5 -31t41.5 -107q0 -4 -2.5 -7t-6.5 -3h-56q-4 0 -6.5 2.5t-2.5 6.5q-2 34 -19.5 50.5t-44.5 16.5q-31 0 -46.5 -18.5
t-15.5 -58.5v-70h140q4 0 6.5 -2.5t2.5 -6.5v-60q0 -8 -9 -8h-140v-407q0 -108 -61.5 -166t-173.5 -61q-4 0 -6.5 2.5z" />
    <glyph glyph-name="Oslashacute" unicode="&#x1fe;" horiz-adv-x="712" 
d="M672 345q0 -108 -38.5 -188t-109.5 -123.5t-168 -43.5q-68 0 -124.5 22.5t-97.5 64.5l-44 -44q-2 -3 -6 -3t-6 3l-34 34q-6 7 0 13l49 49q-53 89 -53 216q0 108 38.5 188t109.5 123.5t168 43.5q68 0 124.5 -22t97.5 -64l44 43q5 6 12 1l34 -34q7 -6 0 -13l-49 -49
q53 -90 53 -217zM164 200l349 348q-58 66 -157 66q-101 0 -160 -71t-59 -198q0 -85 27 -145zM516.5 147.5q59.5 71.5 59.5 197.5q0 84 -28 146l-348 -348q58 -67 156 -67q101 0 160.5 71.5zM328.5 753.5q-1.5 3.5 2.5 7.5l93 102q4 5 11 5h87q6 0 7 -3.5t-3 -7.5l-131 -103
q-5 -4 -11 -4h-48q-6 0 -7.5 3.5z" />
    <glyph glyph-name="oslashacute" unicode="&#x1ff;" horiz-adv-x="570" 
d="M530 254q0 -84 -31.5 -143.5t-87 -90.5t-126.5 -31q-105 0 -171 64l-17 -17q-4 -4 -9 0l-24 24q-3 5 0 9l20 20q-44 66 -44 165q0 86 31 146t86.5 91t127.5 31q104 0 169 -63l17 17q5 3 9 0l24 -24q2 -2 2 -4.5t-2 -4.5l-19 -19q45 -71 45 -170zM149 154l246 246
q-39 42 -109 42q-72 0 -113.5 -47t-41.5 -141q0 -59 18 -100zM399.5 115.5q41.5 46.5 41.5 138.5q0 63 -19 107l-248 -248q41 -44 112 -44q72 0 113.5 46.5zM257.5 575.5q-1.5 3.5 2.5 7.5l93 102q4 5 11 5h87q6 0 7 -3.5t-3 -7.5l-131 -103q-5 -4 -11 -4h-48q-6 0 -7.5 3.5
z" />
    <glyph glyph-name="uni0237" unicode="&#x237;" horiz-adv-x="250" 
d="M-21 -103h47q54 0 54 59v556h92v-550q0 -70 -32 -105t-103 -35h-58v75z" />
    <glyph glyph-name="circumflex" unicode="&#x2c6;" horiz-adv-x="320" 
d="M27 542q-1 3 3 8l107 112q5 5 11 5h26q6 0 11 -5l106 -112q3 -4 3 -7q0 -4 -7 -4h-54q-6 0 -11 5l-62 69l-61 -69q-3 -5 -10 -5h-55q-6 0 -7 3z" />
    <glyph glyph-name="caron" unicode="&#x2c7;" horiz-adv-x="320" 
d="M133 544l-104 111q-3 5 -3 7q0 4 7 4h55q7 0 10 -5l62 -66l62 66q3 5 10 5h54q5 0 7 -3t-2 -8l-105 -111q-6 -4 -11 -4h-31q-5 0 -11 4z" />
    <glyph glyph-name="breve" unicode="&#x2d8;" horiz-adv-x="295" 
d="M43.5 566.5q-41.5 32.5 -45.5 90.5q0 4 2.5 6.5t6.5 2.5h51q9 0 9 -9q4 -30 26.5 -47.5t54.5 -17.5q33 0 55.5 17.5t25.5 47.5q2 9 9 9h52q4 0 6.5 -3t2.5 -7q-4 -58 -45.5 -90t-105.5 -32q-63 0 -104.5 32.5z" />
    <glyph glyph-name="dotaccent" unicode="&#x2d9;" horiz-adv-x="121" 
d="M19 577v80q0 4 2.5 6.5t6.5 2.5h65q8 0 8 -9v-80q0 -9 -8 -9h-65q-9 0 -9 9z" />
    <glyph glyph-name="ring" unicode="&#x2da;" horiz-adv-x="193" 
d="M25.5 557.5q-28.5 29.5 -28.5 71.5q0 41 28.5 70t70.5 29q41 0 70.5 -28.5t29.5 -70.5t-29.5 -71.5t-70.5 -29.5q-42 0 -70.5 29.5zM133.5 591q15.5 15 15.5 38q0 22 -15 37t-38 15t-37.5 -14.5t-14.5 -37.5q0 -24 15 -38.5t37 -14.5t37.5 15z" />
    <glyph glyph-name="ogonek" unicode="&#x2db;" horiz-adv-x="223" 
d="M87 -194.5q-29 26.5 -29 72.5q0 39 23 72t60 56l49 -6q-38 -32 -56.5 -57.5t-18.5 -53.5q0 -27 13.5 -40.5t33.5 -11.5q25 0 46 23q3 4 6 4.5t7 -1.5l34 -23q6 -6 3 -11q-35 -50 -96 -50q-46 0 -75 26.5z" />
    <glyph glyph-name="tilde" unicode="&#x2dc;" horiz-adv-x="346" 
d="M-1 538q2 52 25.5 80t68.5 28q31 0 50.5 -10.5t43.5 -31.5q20 -16 31.5 -22.5t26.5 -6.5q43 0 46 62q0 9 9 9h40q4 0 6.5 -2.5t2.5 -6.5q-2 -57 -28.5 -86t-70.5 -29q-29 0 -48.5 10t-43.5 30q-18 15 -31 22.5t-28 7.5q-20 0 -31.5 -14.5t-13.5 -39.5q0 -9 -9 -9h-38
q-8 0 -8 9z" />
    <glyph glyph-name="hungarumlaut" unicode="&#x2dd;" horiz-adv-x="363" 
d="M-2 555q-2 3 2 8l90 98q3 5 10 5h78q6 0 7.5 -3.5t-2.5 -7.5l-110 -98q-4 -5 -11 -5h-56q-6 0 -8 3zM168 555q-2 3 2 8l89 98q4 5 11 5h84q6 0 7.5 -3.5t-3.5 -7.5l-116 -99q-5 -4 -11 -4h-56q-5 0 -7 3z" />
    <glyph glyph-name="gravecomb" unicode="&#x300;" 
d="M-73 552l-124 103q-3 3 -3 6q0 5 7 5h88q6 0 11 -5l93 -103q3 -3 3 -5q0 -5 -7 -5h-58q-6 0 -10 4z" />
    <glyph glyph-name="acutecomb" unicode="&#x301;" 
d="M-193.5 551.5q-1.5 3.5 2.5 7.5l93 102q4 5 11 5h87q6 0 7 -3.5t-3 -7.5l-131 -103q-5 -4 -11 -4h-48q-6 0 -7.5 3.5z" />
    <glyph glyph-name="uni0302" unicode="&#x302;" 
d="M-293 542q-1 3 3 8l102 108q3 5 10 5h36q6 0 11 -5l102 -108q3 -4 3 -7q0 -4 -7 -4h-54q-6 0 -11 5l-56 62q-5 7 -12 0l-55 -62q-3 -5 -10 -5h-55q-6 0 -7 3z" />
    <glyph glyph-name="tildecomb" unicode="&#x303;" 
d="M-347 538q2 52 25.5 80t68.5 28q31 0 50.5 -10.5t43.5 -31.5q20 -16 31.5 -22.5t26.5 -6.5q43 0 46 62q0 9 9 9h40q4 0 6.5 -2.5t2.5 -6.5q-2 -57 -28.5 -86t-70.5 -29q-29 0 -48.5 10t-43.5 30q-18 15 -31 22.5t-28 7.5q-20 0 -31.5 -14.5t-13.5 -39.5q0 -9 -9 -9h-38
q-8 0 -8 9z" />
    <glyph glyph-name="uni0304" unicode="&#x304;" 
d="M-293 589v39q0 8 9 8h248q9 0 9 -8v-39q0 -9 -9 -9h-248q-9 0 -9 9z" />
    <glyph glyph-name="uni0306" unicode="&#x306;" 
d="M-251.5 566.5q-41.5 32.5 -45.5 90.5q0 4 2.5 6.5t6.5 2.5h51q9 0 9 -9q4 -30 26.5 -47.5t54.5 -17.5q33 0 55.5 17.5t25.5 47.5q1 9 9 9h52q4 0 6.5 -3t2.5 -7q-4 -58 -45.5 -90t-105.5 -32q-63 0 -104.5 32.5z" />
    <glyph glyph-name="uni0307" unicode="&#x307;" 
d="M-102 577v80q0 4 2.5 6.5t6.5 2.5h65q8 0 8 -9v-80q0 -9 -8 -9h-65q-9 0 -9 9z" />
    <glyph glyph-name="uni0308" unicode="&#x308;" 
d="M-270 574v83q0 4 2.5 6.5t6.5 2.5h69q8 0 8 -9v-83q0 -8 -8 -8h-69q-9 0 -9 8zM-106 574v83q0 4 2.5 6.5t6.5 2.5h69q4 0 6.5 -2.5t2.5 -6.5v-83q0 -8 -9 -8h-69q-9 0 -9 8z" />
    <glyph glyph-name="uni030A" unicode="&#x30a;" 
d="M-167.5 557.5q-28.5 29.5 -28.5 71.5q0 41 28.5 70t70.5 29q41 0 70.5 -28.5t29.5 -70.5t-29.5 -71.5t-70.5 -29.5q-42 0 -70.5 29.5zM-59.5 591q15.5 15 15.5 38q0 22 -15 37t-38 15t-37.5 -14.5t-14.5 -37.5q0 -24 15 -38.5t37 -14.5t37.5 15z" />
    <glyph glyph-name="uni030B" unicode="&#x30b;" 
d="M-365 555q-2 3 2 8l90 98q2 5 10 5h78q6 0 7.5 -3.5t-2.5 -7.5l-110 -98q-4 -5 -11 -5h-56q-6 0 -8 3zM-195 555q-2 3 2 8l89 98q4 5 11 5h84q6 0 7.5 -3.5t-3.5 -7.5l-116 -99q-5 -4 -11 -4h-56q-5 0 -7 3z" />
    <glyph glyph-name="uni030C" unicode="&#x30c;" 
d="M-186 544l-105 111q-3 5 -3 7q0 4 7 4h55q7 0 10 -5l55 -60q6 -6 13 0l56 60q3 5 10 5h54q5 0 7 -3t-2 -8l-106 -111q-5 -5 -11 -5h-29q-8 0 -11 5z" />
    <glyph glyph-name="uni0312" unicode="&#x312;" 
d="M147.5 690.5q1.5 -2.5 -0.5 -6.5l-54 -117q-3 -6 -10 -6h-86q-5 0 -7 3t2 7l101 117q4 5 11 5h37q5 0 6.5 -2.5z" />
    <glyph glyph-name="uni0326" unicode="&#x326;" 
d="M-165.5 -213q-1.5 3 0.5 7l54 131q1 7 10 7h86q5 0 7 -3.5t-2 -7.5l-101 -132q-4 -5 -11 -5h-37q-5 0 -6.5 3z" />
    <glyph glyph-name="uni0327" unicode="&#x327;" 
d="M-144 -228.5q-24 15.5 -37 39.5q-1 1 -1 4q0 6 5 8l32 16q2 1 5 1q5 0 7 -5q5 -12 15.5 -19.5t24.5 -7.5q18 0 31 13t13 32q0 30 -42 43l-53 17q-8 3 -4 12l41 75h63l-40 -61q46 -13 69 -32.5t23 -52.5q0 -43 -29.5 -70.5t-68.5 -27.5q-30 0 -54 15.5z" />
    <glyph glyph-name="uni0328" unicode="&#x328;" 
d="M-136 -194.5q-29 26.5 -29 72.5q0 39 23 72t60 56l49 -6q-38 -32 -56.5 -57.5t-18.5 -53.5q0 -27 13.5 -40.5t33.5 -11.5q25 0 46 23q3 4 6 4.5t7 -1.5l34 -23q6 -6 3 -11q-35 -50 -96 -50q-46 0 -75 26.5z" />
    <glyph glyph-name="uni0335" unicode="&#x335;" 
d="M-543 300h315v-44h-315v44z" />
    <glyph glyph-name="uni0336" unicode="&#x336;" 
d="M-610 266v24q0 9 9 9h604q9 0 9 -9v-24q0 -9 -9 -9h-604q-9 0 -9 9z" />
    <glyph glyph-name="uni0337" unicode="&#x337;" 
d="M-419 39q-5 0 -5 7v92q0 6 5 11l369 293q2 2 5 2q5 0 5 -8v-96q0 -6 -5 -11l-368 -288q-2 -2 -6 -2z" />
    <glyph glyph-name="uni0338" unicode="&#x338;" 
d="M-590 38q-4 0 -6 3l-34 34q-6 7 0 13l578 577q5 6 12 1l34 -34q7 -6 0 -13l-578 -578q-2 -3 -6 -3z" />
    <glyph glyph-name="endash" unicode="&#x2013;" horiz-adv-x="391" 
d="M19 225v51q0 9 9 9h335q9 0 9 -9v-51q0 -8 -9 -8h-335q-9 0 -9 8z" />
    <glyph glyph-name="emdash" unicode="&#x2014;" horiz-adv-x="1000" 
d="M0 225v51q0 4 2.5 6.5t6.5 2.5h982q4 0 6.5 -2.5t2.5 -6.5v-51q0 -8 -9 -8h-982q-9 0 -9 8z" />
    <glyph glyph-name="quoteleft" unicode="&#x2018;" horiz-adv-x="233" 
d="M162 687q2 -3 1 -7l-41 -142h36q4 0 6.5 -2.5t2.5 -6.5v-100q0 -8 -9 -8h-104q-9 0 -9 8v104q0 4 2 10l61 139q3 8 11 8h36q5 0 7 -3z" />
    <glyph glyph-name="quoteright" unicode="&#x2019;" horiz-adv-x="241" 
d="M69 431l41 142h-36q-9 0 -9 8v100q0 4 2.5 6.5t6.5 2.5h104q9 0 9 -9v-103q0 -3 -2 -11l-61 -139q-3 -7 -11 -7h-36q-11 0 -8 10z" />
    <glyph glyph-name="quotesinglbase" unicode="&#x201a;" horiz-adv-x="266" 
d="M65 -149q-2 3 -1 7l41 142h-36q-4 0 -6.5 2.5t-2.5 6.5v100q0 8 9 8h104q9 0 9 -8v-104q0 -4 -2 -10l-61 -139q-3 -8 -11 -8h-36q-5 0 -7 3z" />
    <glyph glyph-name="quotedblleft" unicode="&#x201c;" horiz-adv-x="435" 
d="M364 687q2 -3 1 -7l-41 -142h36q4 0 6.5 -2.5t2.5 -6.5v-100q0 -8 -9 -8h-104q-9 0 -9 8v104q0 4 2 10l61 139q3 8 11 8h36q5 0 7 -3zM162 687q2 -3 1 -7l-41 -142h36q4 0 6.5 -2.5t2.5 -6.5v-100q0 -8 -9 -8h-104q-9 0 -9 8v104q0 4 2 10l61 139q3 8 11 8h36q5 0 7 -3z
" />
    <glyph glyph-name="quotedblright" unicode="&#x201d;" horiz-adv-x="451" 
d="M69 431l41 142h-36q-9 0 -9 8v100q0 4 2.5 6.5t6.5 2.5h104q9 0 9 -9v-103q0 -3 -2 -11l-61 -139q-3 -7 -11 -7h-36q-11 0 -8 10zM280 431l41 142h-36q-9 0 -9 8v100q0 4 2.5 6.5t6.5 2.5h104q9 0 9 -9v-103q0 -3 -2 -11l-61 -139q-3 -7 -11 -7h-36q-11 0 -8 10z" />
    <glyph glyph-name="quotedblbase" unicode="&#x201e;" horiz-adv-x="477" 
d="M65 -149q-2 3 -1 7l41 142h-36q-4 0 -6.5 2.5t-2.5 6.5v100q0 8 9 8h104q9 0 9 -8v-104q0 -4 -2 -10l-61 -139q-3 -8 -11 -8h-36q-5 0 -7 3zM276 -149q-2 3 -1 7l41 142h-36q-4 0 -6.5 2.5t-2.5 6.5v100q0 8 9 8h104q9 0 9 -8v-104q0 -4 -2 -10l-61 -139q-3 -8 -11 -8
h-36q-5 0 -7 3z" />
    <glyph glyph-name="dagger" unicode="&#x2020;" horiz-adv-x="397" 
d="M161 -91v502h-99q-9 0 -9 9v58q0 9 9 9h99v194q0 9 9 9h57q9 0 9 -9v-194h99q9 0 9 -9v-58q0 -9 -9 -9h-99v-502q0 -9 -9 -9h-57q-9 0 -9 9z" />
    <glyph glyph-name="daggerdbl" unicode="&#x2021;" horiz-adv-x="397" 
d="M161 -91v194h-99q-9 0 -9 9v58q0 9 9 9h99v232h-99q-9 0 -9 9v58q0 9 9 9h99v194q0 9 9 9h57q9 0 9 -9v-194h99q9 0 9 -9v-58q0 -9 -9 -9h-99v-232h99q9 0 9 -9v-58q0 -9 -9 -9h-99v-194q0 -9 -9 -9h-57q-9 0 -9 9z" />
    <glyph glyph-name="bullet" unicode="&#x2022;" horiz-adv-x="397" 
d="M114.5 114q-38.5 23 -61.5 62t-23 85t23 84.5t61.5 61t84.5 22.5q45 0 84 -22.5t61.5 -61t22.5 -84.5t-23 -85t-61.5 -62t-83.5 -23q-46 0 -84.5 23z" />
    <glyph glyph-name="ellipsis" unicode="&#x2026;" horiz-adv-x="818" 
d="M350.5 2.5q-2.5 2.5 -2.5 6.5v100q0 8 9 8h104q9 0 9 -8v-100q0 -9 -9 -9h-104q-4 0 -6.5 2.5zM57.5 2.5q-2.5 2.5 -2.5 6.5v100q0 8 9 8h104q9 0 9 -8v-100q0 -9 -9 -9h-104q-4 0 -6.5 2.5zM642.5 2.5q-2.5 2.5 -2.5 6.5v100q0 8 9 8h104q9 0 9 -8v-100q0 -9 -9 -9h-104
q-4 0 -6.5 2.5z" />
    <glyph glyph-name="perthousand" unicode="&#x2030;" horiz-adv-x="1024" 
d="M84.5 408q-29.5 25 -42 61t-12.5 72q0 61 30.5 110.5t97.5 49.5q43 0 72.5 -23.5t44 -60t14.5 -76.5q0 -63 -33 -110.5t-95 -47.5q-47 0 -76.5 25zM135.5 4q-2.5 3 0.5 7l360 672q3 6 11 6h68q5 0 7 -3t-1 -7l-360 -672q-3 -6 -10 -6h-68q-5 0 -7.5 3zM201 478.5
q15 27.5 15 63.5t-15.5 62.5t-42.5 26.5t-42 -26.5t-15 -63.5q0 -36 15.5 -63t42.5 -27t42 27.5zM790.5 23q-29.5 25 -42.5 61.5t-13 72.5t12.5 73t41 62.5t74.5 25.5q43 0 73 -23.5t44.5 -60.5t14.5 -77t-14.5 -76.5t-43.5 -59.5t-71 -23q-46 0 -75.5 25zM488.5 23
q-29.5 25 -42 61.5t-12.5 72.5q0 61 30.5 111t97.5 50q43 0 72.5 -23.5t44 -60.5t14.5 -77q0 -63 -33 -111t-95 -48q-47 0 -76.5 25zM605 94q15 27 15 64t-15 64t-43 27q-27 0 -42 -27.5t-15 -64.5t15.5 -63.5t43.5 -26.5q26 0 41 27zM906 94q15 27 15 64t-15 64t-43 27
q-27 0 -41.5 -27t-14.5 -65q0 -37 15 -63.5t42 -26.5t42 27z" />
    <glyph glyph-name="guilsinglleft" unicode="&#x2039;" horiz-adv-x="283" 
d="M234.5 116.5q-3.5 -1.5 -7.5 2.5l-175 174q-5 6 0 12l175 174q3 3 6 3q5 0 5 -7v-72q0 -5 -5 -10l-88 -94l88 -93q5 -5 5 -10v-72q0 -6 -3.5 -7.5z" />
    <glyph glyph-name="guilsinglright" unicode="&#x203a;" horiz-adv-x="283" 
d="M51 116q-5 0 -5 8v72q0 5 5 10l88 93l-88 94q-5 5 -5 10v72q0 6 3.5 7t7.5 -3l174 -174q6 -6 0 -12l-174 -174q-3 -3 -6 -3z" />
    <glyph glyph-name="fraction" unicode="&#x2044;" horiz-adv-x="150" 
d="M218 690h89l-375 -690h-89z" />
    <glyph glyph-name="Euro" unicode="&#x20ac;" horiz-adv-x="654" 
d="M618.5 77.5q0.5 -3.5 -2.5 -6.5q-81 -81 -208 -81q-120 0 -195.5 69t-99.5 183h-105q-12 0 -7 11l20 39q3 7 11 7h72q-2 30 -2 46l1 34h-93q-5 0 -7 3t0 8l21 41q2 6 11 6h75q22 119 97.5 191.5t199.5 72.5q103 0 175 -55q6 -3 4 -12l-23 -60q-1 -5 -4.5 -6t-7.5 3
q-35 29 -70 42.5t-76 13.5q-84 0 -136.5 -52t-71.5 -138h301q5 0 6.5 -3t-0.5 -7l-18 -43q-3 -6 -10 -6l-287 1q-2 -24 -2 -36q0 -16 2 -44h251q5 0 7.5 -3t0.5 -8l-16 -39q-3 -7 -10 -7h-223q20 -79 72 -126t136 -47q94 0 152 54q4 4 6.5 4t6.5 -3l43 -41q3 -2 3.5 -5.5z
" />
    <glyph glyph-name="trademark" unicode="&#x2122;" horiz-adv-x="593" 
d="M224 681v-33q0 -9 -9 -9h-71v-202q0 -4 -2.5 -6.5t-6.5 -2.5h-40q-8 0 -8 9v202h-72q-9 0 -9 9v33q0 9 9 9h200q9 0 9 -9zM539.5 687.5q2.5 -2.5 2.5 -6.5v-244q0 -4 -2.5 -6.5t-6.5 -2.5h-40q-4 0 -6.5 2.5t-2.5 6.5v172l-53 -174q-3 -7 -11 -7h-33q-6 0 -10 7l-56 177
v-175q0 -4 -2.5 -6.5t-6.5 -2.5h-39q-9 0 -9 9v244q0 9 9 9h61q8 0 11 -7l58 -196l60 196q4 7 10 7h60q4 0 6.5 -2.5z" />
    <glyph glyph-name="uni2126" unicode="&#x2126;" horiz-adv-x="724" 
d="M35 9v60q0 8 9 8h146q-70 41 -111.5 115.5t-41.5 161.5q0 91 44 167.5t118.5 121t162.5 44.5q89 0 163.5 -45t118 -122t43.5 -169q0 -86 -38.5 -160t-106.5 -114h139q8 0 8 -9v-59q0 -9 -8 -9h-237q-9 0 -9 9v59q0 8 7 11q48 15 85 55t57.5 96t20.5 118q0 79 -32.5 138
t-88 91t-121.5 32q-68 0 -124 -33t-88 -92t-32 -134q0 -90 46.5 -164t117.5 -107q6 -3 6 -10v-60q0 -9 -8 -9h-237q-9 0 -9 9z" />
    <glyph glyph-name="uni2206" unicode="&#x2206;" horiz-adv-x="562" 
d="M8.5 3q-2.5 3 -0.5 8l268 683q1 5 6 5t6 -5l267 -683l1 -4q0 -7 -8 -7h-533q-4 0 -6.5 3zM444 78l-162 426l-162 -426h324z" />
    <glyph glyph-name="summation" unicode="&#x2211;" horiz-adv-x="574" 
d="M34 9v24q0 3 4 11l277 301l-277 302q-4 6 -4 11v23q0 9 9 9h488q9 0 9 -9v-61q0 -8 -9 -8h-355l246 -261q3 -2 3 -6t-3 -6l-246 -261h355q9 0 9 -8v-61q0 -9 -9 -9h-488q-9 0 -9 9z" />
    <glyph glyph-name="radical" unicode="&#x221a;" horiz-adv-x="547" 
d="M228 -88q-4 0 -6 5l-124 358h-65q-9 0 -9 9v60q0 9 9 9h114q3 0 6 -2t4 -5l75 -239l219 579q3 9 12 5l57 -21q10 -3 6 -12l-292 -741q-2 -5 -6 -5z" />
    <glyph glyph-name="infinity" unicode="&#x221e;" horiz-adv-x="790" 
d="M62.5 217.5q-48.5 53.5 -48.5 141.5t48.5 141.5t134.5 53.5q54 0 106 -30t92 -85q40 55 92 85t106 30q86 0 134.5 -53.5t48.5 -141.5t-48.5 -141.5t-134.5 -53.5q-53 0 -105.5 30t-92.5 85q-39 -55 -91.5 -85t-106.5 -30q-86 0 -134.5 53.5zM289 274.5q39 30.5 66 84.5
q-27 53 -66.5 84t-76.5 31q-51 0 -82.5 -30.5t-31.5 -84.5t31.5 -84.5t82.5 -30.5q38 0 77 30.5zM660.5 274.5q31.5 30.5 31.5 84.5t-31.5 84.5t-82.5 30.5q-38 0 -77 -30.5t-65 -84.5q27 -54 66 -84.5t76 -30.5q51 0 82.5 30.5z" />
    <glyph glyph-name="approxequal" unicode="&#x2248;" horiz-adv-x="612" 
d="M332.5 266.5q-26.5 13.5 -57.5 38.5q-24 20 -41.5 30t-38.5 10q-27 0 -38.5 -18t-11.5 -51q0 -9 -9 -9h-50q-4 0 -6.5 2.5t-2.5 6.5q2 60 32 96t85 36q45 0 74 -14.5t60 -41.5q21 -18 35.5 -26.5t33.5 -8.5q30 0 43 19.5t14 59.5q0 9 9 9h54q4 0 6.5 -3t2.5 -7
q-2 -67 -36.5 -104.5t-95.5 -37.5q-35 0 -61.5 13.5zM332.5 68.5q-26.5 13.5 -57.5 38.5q-25 20 -42 29.5t-38 9.5q-27 0 -38.5 -17.5t-11.5 -50.5q0 -9 -9 -9h-50q-9 0 -9 9q2 60 32 96t85 36q45 0 74 -14.5t60 -41.5q21 -18 35.5 -26.5t33.5 -8.5q30 0 43 20t14 59
q0 8 9 8h54q9 0 9 -9q-2 -67 -36.5 -104.5t-95.5 -37.5q-35 0 -61.5 13.5z" />
    <glyph glyph-name="notequal" unicode="&#x2260;" horiz-adv-x="594" 
d="M73 11l102 189h-97q-8 0 -8 9v60q0 8 8 8h139l55 102h-194q-8 0 -8 8v60q0 9 8 9h237l122 228q3 6 11 6h67q5 0 6.5 -3t-0.5 -8l-113 -223h100q4 0 6.5 -2.5t2.5 -6.5v-60q0 -8 -9 -8h-150l-53 -102h203q9 0 9 -8v-60q0 -4 -2.5 -6.5t-6.5 -2.5h-247l-103 -194
q-3 -6 -11 -6h-67q-10 0 -7 11z" />
    <glyph glyph-name="lessequal" unicode="&#x2264;" horiz-adv-x="603" 
d="M63 296q-4 2 -4 5.5t4 6.5l443 242l4 1q7 0 7 -8v-65q0 -6 -7 -10l-296 -160q-4 -3 -4 -6.5t4 -5.5l296 -158q7 -3 7 -11v-67q0 -5 -3.5 -7t-7.5 1zM55 -68q-9 0 -9 8v51q0 4 2.5 6.5t6.5 2.5h452q9 0 9 -9v-51q0 -8 -9 -8h-452z" />
    <glyph glyph-name="greaterequal" unicode="&#x2265;" horiz-adv-x="596" 
d="M85 52q-6 0 -6 8v67q0 8 7 11l296 158q5 2 5 5.5t-5 6.5l-296 160q-7 4 -7 10v65q0 5 3 7t8 0l443 -242q5 -3 5 -6.5t-5 -5.5l-443 -242zM79 -60v51q0 4 2.5 6.5t6.5 2.5h452q9 0 9 -9v-51q0 -8 -9 -8h-452q-9 0 -9 8z" />
    <glyph glyph-name="lozenge" unicode="&#x25ca;" horiz-adv-x="529" 
d="M218 6l-176 338q-3 6 0 12l176 338q3 6 10 6h74q9 0 10 -6l176 -338q3 -6 0 -12l-176 -338q-1 -6 -10 -6h-74q-7 0 -10 6zM397 350l-132 262l-132 -262l132 -262z" />
    <glyph glyph-name="f_t" horiz-adv-x="608" 
d="M462 442v-286q0 -46 15.5 -64.5t54.5 -18.5h42q9 0 9 -8v-56q0 -4 -2.5 -6.5t-6.5 -2.5h-73q-130 0 -130 135v307h-54h-2h-119v-433q0 -9 -9 -9h-73q-4 0 -6.5 2.5t-2.5 6.5v433h-81q-9 0 -9 9v52q0 4 2.5 6.5t6.5 2.5h81v33q0 66 40.5 105.5t110.5 39.5h59q4 0 6.5 -2.5
t2.5 -6.5v-53q0 -9 -9 -9h-48q-33 0 -52 -20t-19 -53v-34h119h56v129q0 4 2.5 6.5t6.5 2.5h73q4 0 6.5 -2.5t2.5 -6.5v-129h112q4 0 6.5 -2.5t2.5 -6.5v-52q0 -9 -9 -9h-112z" />
    <glyph glyph-name="t_t" horiz-adv-x="593" 
d="M447 442v-286q0 -46 15.5 -64.5t54.5 -18.5h42q9 0 9 -8v-56q0 -4 -2.5 -6.5t-6.5 -2.5h-73q-129 0 -129 135v307h-62h-1h-112v-286q0 -46 15.5 -64.5t53.5 -18.5h43q8 0 8 -8v-56q0 -9 -8 -9h-73q-130 0 -130 135v307h-67q-9 0 -9 9v52q0 4 2.5 6.5t6.5 2.5h67v129
q0 4 2.5 6.5t6.5 2.5h73q4 0 6.5 -2.5t2.5 -6.5v-129h112h63v129q0 9 9 9h72q4 0 6.5 -2.5t2.5 -6.5v-129h112q4 0 6.5 -2.5t2.5 -6.5v-52q0 -9 -9 -9h-112z" />
    <glyph glyph-name="HankenDesign" horiz-adv-x="904" 
d="M262.5 21q-86.5 51 -137.5 137.5t-51 189.5t51 189.5t137.5 137.5t189.5 51t189.5 -51t137.5 -137.5t51 -189.5t-51 -189.5t-137.5 -137.5t-189.5 -51t-189.5 51zM624 51q79 46 125 125t46 172t-46 172t-125 125t-172 46t-172 -46t-125 -125t-46 -172t46 -172t125 -125
t172 -46t172 46zM243 205q-5 5 -5 12v262q0 7 5 12.5t12 5.5q8 0 13 -5t5 -13v-262q0 -7 -5 -12t-13 -5q-7 0 -12 5zM440 205q-5 5 -5 12v262q0 8 5 13t12 5t12 -5t5 -13v-262q0 -7 -4.5 -12t-12.5 -5q-7 0 -12 5zM637 205l-132 131q-5 5 -5 12t5 12l132 131q5 6 11 6
q7 0 12.5 -6t5.5 -13q0 -6 -5 -11l-119 -119l119 -119q5 -5 5 -11q0 -7 -5.5 -12.5t-12.5 -5.5t-11 5zM309 336q-5 5 -5 12q0 8 5 12.5t12 4.5h65q8 0 13 -5t5 -12t-5 -12t-13 -5h-65q-7 0 -12 5z" />
    </font>
</defs>
</svg>
